<?xml version="1.0" encoding="utf-8"?>
<!-- Generator: Adobe Illustrator 27.5.0, SVG Export Plug-In . SVG Version: 6.00 Build 0)  -->
<svg version="1.1" xmlns="http://www.w3.org/2000/svg" xmlns:xlink="http://www.w3.org/1999/xlink" x="0px" y="0px"
	 viewBox="0 0 750 500" style="enable-background:new 0 0 750 500;" xml:space="preserve">
<g id="BACKGROUND">
	<linearGradient id="SVGID_1_" gradientUnits="userSpaceOnUse" x1="375" y1="481.1305" x2="375" y2="-4.3855">
		<stop  offset="0" style="stop-color:#E2DC49"/>
		<stop  offset="1" style="stop-color:#797C23"/>
	</linearGradient>
	<rect style="fill:url(#SVGID_1_);" width="750" height="500"/>
</g>
<g id="OBJECTS">
	<g>
		<defs>
			<rect id="SVGID_00000009581701141488319950000007368813479514223281_" width="750" height="500"/>
		</defs>
		<clipPath id="SVGID_00000000915621507468223900000011654901737248003483_">
			<use xlink:href="#SVGID_00000009581701141488319950000007368813479514223281_"  style="overflow:visible;"/>
		</clipPath>
		
			<linearGradient id="SVGID_00000117638730685273318480000004107598269905406084_" gradientUnits="userSpaceOnUse" x1="375" y1="64.9298" x2="375" y2="28.3403">
			<stop  offset="0" style="stop-color:#E2DC49"/>
			<stop  offset="1" style="stop-color:#797C23"/>
		</linearGradient>
		
			<rect y="51.59" style="opacity:0.75;clip-path:url(#SVGID_00000000915621507468223900000011654901737248003483_);fill:url(#SVGID_00000117638730685273318480000004107598269905406084_);" width="750" height="8.017"/>
		<g style="clip-path:url(#SVGID_00000000915621507468223900000011654901737248003483_);">
			
				<linearGradient id="SVGID_00000017474524400796660730000004322114792106421896_" gradientUnits="userSpaceOnUse" x1="750" y1="199.2375" x2="750" y2="-159.2014">
				<stop  offset="0" style="stop-color:#FEF5F0"/>
				<stop  offset="0.5445" style="stop-color:#FBD4B2"/>
				<stop  offset="1" style="stop-color:#F8B67B"/>
			</linearGradient>
			<polygon style="fill:url(#SVGID_00000017474524400796660730000004322114792106421896_);" points="750,94.369 533.052,94.369 
				533.052,355.866 750,355.866 966.948,355.866 966.948,94.369 			"/>
			
				<linearGradient id="SVGID_00000160896597302923807930000002353974874941285788_" gradientUnits="userSpaceOnUse" x1="750" y1="100.1912" x2="750" y2="392.3143">
				<stop  offset="0" style="stop-color:#693032"/>
				<stop  offset="1" style="stop-color:#824042"/>
			</linearGradient>
			<path style="fill:url(#SVGID_00000160896597302923807930000002353974874941285788_);" d="M531.552,92.869v264.496h436.896V92.869
				H531.552z M965.448,155.88h-98.933V95.869h98.933V155.88z M863.516,316.72h-30.724V196.526h30.724V316.72z M829.792,316.72
				H705.706v-42.896h93.357v-39.368h-95.127v-37.93h125.856V316.72z M636.484,196.526h30.724V316.72h-30.724V196.526z
				 M670.208,196.526h30.728v40.93h95.127v33.368h-93.357v45.896h-32.498V196.526z M670.208,193.526V158.88H750h79.792v34.646
				H670.208z M667.208,193.526h-30.724V158.88h30.724V193.526z M636.484,319.72h30.724v34.646h-30.724V319.72z M670.208,319.72
				h159.584v34.646H670.208V319.72z M832.792,319.72h30.724v34.646h-30.724V319.72z M863.516,193.526h-30.724V158.88h30.724V193.526
				z M750,155.88H636.484V95.869h227.031v60.011H750z M633.484,95.869v60.011h-98.933V95.869H633.484z M534.552,158.88h98.933
				v195.485h-98.933V158.88z M866.516,354.366V158.88h98.933v195.485H866.516z"/>
		</g>
		<g style="clip-path:url(#SVGID_00000000915621507468223900000011654901737248003483_);">
			
				<linearGradient id="SVGID_00000034775609858380005300000008405193412551552392_" gradientUnits="userSpaceOnUse" x1="-2.740281e-06" y1="284.6672" x2="-2.740281e-06" y2="-159.2158">
				<stop  offset="0" style="stop-color:#FEF5F0"/>
				<stop  offset="0.5445" style="stop-color:#FBD4B2"/>
				<stop  offset="1" style="stop-color:#F8B67B"/>
			</linearGradient>
			<polygon style="fill:url(#SVGID_00000034775609858380005300000008405193412551552392_);" points="0,94.369 216.948,94.369 
				216.948,355.866 0,355.866 -216.948,355.866 -216.948,94.369 			"/>
			
				<linearGradient id="SVGID_00000033333157283066950860000007163402312758605747_" gradientUnits="userSpaceOnUse" x1="-5.275923e-05" y1="81.1784" x2="-5.275923e-05" y2="381.366">
				<stop  offset="0" style="stop-color:#693032"/>
				<stop  offset="1" style="stop-color:#824042"/>
			</linearGradient>
			<path style="fill:url(#SVGID_00000033333157283066950860000007163402312758605747_);" d="M-218.448,92.869v264.496h436.896
				V92.869H-218.448z M-215.448,95.869h98.933v60.011h-98.933V95.869z M-113.516,196.526h30.724V316.72h-30.724V196.526z
				 M-79.792,196.526H46.063v37.93h-95.127v39.368h93.357v42.896H-79.792V196.526z M113.516,316.72H82.792V196.526h30.724V316.72z
				 M79.792,316.72H47.294v-45.896h-93.357v-33.368h95.127v-40.93h30.729V316.72z M-79.792,193.526V158.88H0h79.792v34.646H-79.792z
				 M82.792,158.88h30.724v34.646H82.792V158.88z M113.516,354.366H82.792V319.72h30.724V354.366z M79.792,354.366H-79.792V319.72
				H79.792V354.366z M-82.792,354.366h-30.724V319.72h30.724V354.366z M-113.516,158.88h30.724v34.646h-30.724V158.88z
				 M-113.516,155.88V95.869h227.031v60.011H0H-113.516z M215.448,95.869v60.011h-98.933V95.869H215.448z M215.448,354.366h-98.933
				V158.88h98.933V354.366z M-215.448,354.366V158.88h98.933v195.485H-215.448z"/>
		</g>
		
			<linearGradient id="SVGID_00000096057372511898437750000013491398481261254792_" gradientUnits="userSpaceOnUse" x1="375" y1="311.5959" x2="375" y2="482.0754">
			<stop  offset="0" style="stop-color:#D49255"/>
			<stop  offset="0.1435" style="stop-color:#C9894E"/>
			<stop  offset="1" style="stop-color:#8B5727"/>
		</linearGradient>
		
			<rect y="357.366" style="clip-path:url(#SVGID_00000000915621507468223900000011654901737248003483_);fill:url(#SVGID_00000096057372511898437750000013491398481261254792_);" width="750" height="142.634"/>
		<g style="clip-path:url(#SVGID_00000000915621507468223900000011654901737248003483_);">
			
				<linearGradient id="SVGID_00000041258792926021002900000013664239789766092958_" gradientUnits="userSpaceOnUse" x1="375" y1="353.1716" x2="375" y2="559.4409">
				<stop  offset="0" style="stop-color:#435E8E"/>
				<stop  offset="1" style="stop-color:#183E80"/>
			</linearGradient>
			<polygon style="fill:url(#SVGID_00000041258792926021002900000013664239789766092958_);" points="665.979,373.077 375,373.077 
				84.021,373.077 -129.53,540.832 375,540.832 879.53,540.832 			"/>
			
				<linearGradient id="SVGID_00000173840729554185587110000001979447952865397646_" gradientUnits="userSpaceOnUse" x1="-113.8003" y1="465.9604" x2="859.6355" y2="465.9604">
				<stop  offset="0" style="stop-color:#245A8F"/>
				<stop  offset="1" style="stop-color:#3C92D9"/>
			</linearGradient>
			<polygon style="fill:url(#SVGID_00000173840729554185587110000001979447952865397646_);" points="654.344,391.089 375,391.089 
				95.656,391.089 -37.357,540.832 375,540.832 787.357,540.832 			"/>
			
				<linearGradient id="SVGID_00000130613149024220280620000005842214873257494955_" gradientUnits="userSpaceOnUse" x1="211.9517" y1="414.241" x2="211.9517" y2="553.3849">
				<stop  offset="0" style="stop-color:#435E8E"/>
				<stop  offset="1" style="stop-color:#183E80"/>
			</linearGradient>
			<polygon style="fill:url(#SVGID_00000130613149024220280620000005842214873257494955_);" points="130.343,540.832 
				278.194,540.832 293.56,427.669 197.786,427.669 			"/>
			
				<linearGradient id="SVGID_00000018950783913792332100000011222779319123730849_" gradientUnits="userSpaceOnUse" x1="211.9517" y1="414.241" x2="211.9517" y2="553.3849" gradientTransform="matrix(-1 0 0 1 750 0)">
				<stop  offset="0" style="stop-color:#435E8E"/>
				<stop  offset="1" style="stop-color:#183E80"/>
			</linearGradient>
			<polygon style="fill:url(#SVGID_00000018950783913792332100000011222779319123730849_);" points="619.657,540.832 
				471.806,540.832 456.439,427.669 552.214,427.669 			"/>
		</g>
		<g style="clip-path:url(#SVGID_00000000915621507468223900000011654901737248003483_);">
			
				<linearGradient id="SVGID_00000167359649972349919370000014806893461566466968_" gradientUnits="userSpaceOnUse" x1="375" y1="78.6766" x2="375" y2="-102.8264">
				<stop  offset="0" style="stop-color:#D49255"/>
				<stop  offset="0.1435" style="stop-color:#C9894E"/>
				<stop  offset="1" style="stop-color:#8B5727"/>
			</linearGradient>
			<rect style="fill:url(#SVGID_00000167359649972349919370000014806893461566466968_);" width="750" height="42.806"/>
			
				<linearGradient id="SVGID_00000147183811940417251090000006745105509855517568_" gradientUnits="userSpaceOnUse" x1="375" y1="10.5797" x2="375" y2="-13.8271">
				<stop  offset="0" style="stop-color:#D49255"/>
				<stop  offset="0.1435" style="stop-color:#C9894E"/>
				<stop  offset="1" style="stop-color:#8B5727"/>
			</linearGradient>
			<rect style="opacity:0.25;fill:url(#SVGID_00000147183811940417251090000006745105509855517568_);" width="750" height="5.756"/>
			
				<linearGradient id="SVGID_00000168833925600668585380000005719110568077345171_" gradientUnits="userSpaceOnUse" x1="375" y1="19.4233" x2="375" y2="7.2199">
				<stop  offset="0" style="stop-color:#D49255"/>
				<stop  offset="0.1435" style="stop-color:#C9894E"/>
				<stop  offset="1" style="stop-color:#8B5727"/>
			</linearGradient>
			
				<rect y="14.134" style="opacity:0.25;fill:url(#SVGID_00000168833925600668585380000005719110568077345171_);" width="750" height="2.878"/>
			
				<linearGradient id="SVGID_00000021839589316276672940000006706257885564350621_" gradientUnits="userSpaceOnUse" x1="375" y1="26.7231" x2="375" y2="20.6216">
				<stop  offset="0" style="stop-color:#D49255"/>
				<stop  offset="0.1435" style="stop-color:#C9894E"/>
				<stop  offset="1" style="stop-color:#8B5727"/>
			</linearGradient>
			
				<rect y="24.078" style="opacity:0.25;fill:url(#SVGID_00000021839589316276672940000006706257885564350621_);" width="750" height="1.439"/>
			<g>
				
					<linearGradient id="SVGID_00000086657544180248383070000016954574292636109997_" gradientUnits="userSpaceOnUse" x1="375" y1="32.868" x2="375" y2="57.7339">
					<stop  offset="0" style="stop-color:#693032"/>
					<stop  offset="1" style="stop-color:#824042"/>
				</linearGradient>
				<rect y="34.023" style="fill:url(#SVGID_00000086657544180248383070000016954574292636109997_);" width="750" height="17.567"/>
				
					<linearGradient id="SVGID_00000155109397893509731250000009777353127691691401_" gradientUnits="userSpaceOnUse" x1="375" y1="36.3411" x2="375" y2="44.9282">
					<stop  offset="0" style="stop-color:#693032"/>
					<stop  offset="1" style="stop-color:#824042"/>
				</linearGradient>
				
					<rect y="36.74" style="opacity:0.45;fill:url(#SVGID_00000155109397893509731250000009777353127691691401_);" width="750" height="6.066"/>
			</g>
			<g>
				
					<linearGradient id="SVGID_00000113331048233474955760000001085126561017640105_" gradientUnits="userSpaceOnUse" x1="118.5475" y1="42.0543" x2="87.312" y2="-10.8229">
					<stop  offset="0" style="stop-color:#693032"/>
					<stop  offset="1" style="stop-color:#824042"/>
				</linearGradient>
				<polygon style="fill:url(#SVGID_00000113331048233474955760000001085126561017640105_);" points="68.978,-8.577 114.007,36.74 
					135.069,36.74 98.755,-11.99 				"/>
				
					<linearGradient id="SVGID_00000161611055992171181130000012580636308532379060_" gradientUnits="userSpaceOnUse" x1="118.649" y1="25.1069" x2="113.6828" y2="-38.3749">
					<stop  offset="0" style="stop-color:#693032"/>
					<stop  offset="1" style="stop-color:#824042"/>
				</linearGradient>
				<polygon style="fill:url(#SVGID_00000161611055992171181130000012580636308532379060_);" points="135.069,36.74 136.338,34.023 
					105.419,-14.64 98.755,-11.99 				"/>
			</g>
			<g>
				
					<linearGradient id="SVGID_00000157304525521552755880000009219785060254893197_" gradientUnits="userSpaceOnUse" x1="118.5475" y1="42.0543" x2="87.312" y2="-10.8229" gradientTransform="matrix(-1 0 0 1 750 0)">
					<stop  offset="0" style="stop-color:#693032"/>
					<stop  offset="1" style="stop-color:#824042"/>
				</linearGradient>
				<polygon style="fill:url(#SVGID_00000157304525521552755880000009219785060254893197_);" points="681.022,-8.577 635.993,36.74 
					614.931,36.74 651.245,-11.99 				"/>
				
					<linearGradient id="SVGID_00000156552242182935328480000005111914381167230627_" gradientUnits="userSpaceOnUse" x1="118.649" y1="25.1069" x2="113.6828" y2="-38.3749" gradientTransform="matrix(-1 0 0 1 750 0)">
					<stop  offset="0" style="stop-color:#693032"/>
					<stop  offset="1" style="stop-color:#824042"/>
				</linearGradient>
				<polygon style="fill:url(#SVGID_00000156552242182935328480000005111914381167230627_);" points="614.931,36.74 613.662,34.023 
					644.581,-14.64 651.245,-11.99 				"/>
			</g>
			
				<linearGradient id="SVGID_00000163065184462328000190000012309281868329203634_" gradientUnits="userSpaceOnUse" x1="378.6809" y1="21.8247" x2="372.6835" y2="-54.8386">
				<stop  offset="0" style="stop-color:#693032"/>
				<stop  offset="1" style="stop-color:#824042"/>
			</linearGradient>
			<polygon style="fill:url(#SVGID_00000163065184462328000190000012309281868329203634_);" points="387.433,36.74 362.567,36.74 
				350.589,-25.228 399.41,-25.228 			"/>
		</g>
	</g>
	<g>
		<g>
			
				<linearGradient id="SVGID_00000080923543226065227220000006767092746438931093_" gradientUnits="userSpaceOnUse" x1="316.3192" y1="172.6083" x2="316.3192" y2="431.5592">
				<stop  offset="0" style="stop-color:#FEF5F0"/>
				<stop  offset="0.5445" style="stop-color:#FBD4B2"/>
				<stop  offset="1" style="stop-color:#F8B67B"/>
			</linearGradient>
			
				<rect x="277.691" y="76.495" style="fill:url(#SVGID_00000080923543226065227220000006767092746438931093_);" width="77.256" height="216.221"/>
			
				<linearGradient id="SVGID_00000004530638078761605880000009927455788236792991_" gradientUnits="userSpaceOnUse" x1="285.1914" y1="184.606" x2="347.4473" y2="184.606">
				<stop  offset="0" style="stop-color:#693032"/>
				<stop  offset="1" style="stop-color:#824042"/>
			</linearGradient>
			<path style="fill:url(#SVGID_00000004530638078761605880000009927455788236792991_);" d="M347.447,285.217h-62.256V83.995h62.256
				V285.217z M286.191,284.217h60.256V84.995h-60.256V284.217z"/>
			
				<linearGradient id="SVGID_00000116952770489574727910000000727913786294096011_" gradientUnits="userSpaceOnUse" x1="316.3192" y1="66.102" x2="316.3192" y2="101.5667">
				<stop  offset="0" style="stop-color:#693032"/>
				<stop  offset="1" style="stop-color:#824042"/>
			</linearGradient>
			<path style="fill:url(#SVGID_00000116952770489574727910000000727913786294096011_);" d="M355.15,70.636h-77.661
				c-1.618,0-2.929,1.312-2.929,2.929l0,0c0,1.618,1.312,2.929,2.929,2.929h77.661c1.618,0,2.929-1.312,2.929-2.929l0,0
				C358.079,71.948,356.768,70.636,355.15,70.636z"/>
		</g>
		<g>
			
				<linearGradient id="SVGID_00000099644881290043464790000012158215727619697794_" gradientUnits="userSpaceOnUse" x1="316.3192" y1="172.6083" x2="316.3192" y2="431.5592" gradientTransform="matrix(1 0 0 1 117.3615 0)">
				<stop  offset="0" style="stop-color:#FEF5F0"/>
				<stop  offset="0.5445" style="stop-color:#FBD4B2"/>
				<stop  offset="1" style="stop-color:#F8B67B"/>
			</linearGradient>
			
				<rect x="395.053" y="76.495" style="fill:url(#SVGID_00000099644881290043464790000012158215727619697794_);" width="77.256" height="216.221"/>
			
				<linearGradient id="SVGID_00000039845433802835017970000016565837683333971344_" gradientUnits="userSpaceOnUse" x1="285.1914" y1="184.606" x2="347.4472" y2="184.606" gradientTransform="matrix(1 0 0 1 117.3615 0)">
				<stop  offset="0" style="stop-color:#693032"/>
				<stop  offset="1" style="stop-color:#824042"/>
			</linearGradient>
			<path style="fill:url(#SVGID_00000039845433802835017970000016565837683333971344_);" d="M464.809,285.217h-62.256V83.995h62.256
				V285.217z M403.553,284.217h60.256V84.995h-60.256V284.217z"/>
			
				<linearGradient id="SVGID_00000134222859171522135220000011795216003523387582_" gradientUnits="userSpaceOnUse" x1="433.6807" y1="66.102" x2="433.6807" y2="101.5667">
				<stop  offset="0" style="stop-color:#693032"/>
				<stop  offset="1" style="stop-color:#824042"/>
			</linearGradient>
			<path style="fill:url(#SVGID_00000134222859171522135220000011795216003523387582_);" d="M472.511,70.636H394.85
				c-1.618,0-2.929,1.312-2.929,2.929l0,0c0,1.618,1.311,2.929,2.929,2.929h77.661c1.618,0,2.929-1.312,2.929-2.929l0,0
				C475.441,71.948,474.129,70.636,472.511,70.636z"/>
		</g>
	</g>
	
		<linearGradient id="SVGID_00000038393515997374926380000017588179105863463575_" gradientUnits="userSpaceOnUse" x1="63.6313" y1="432.6073" x2="649.8278" y2="432.6073">
		<stop  offset="0" style="stop-color:#F5F3FE"/>
		<stop  offset="1" style="stop-color:#D4D2FA"/>
	</linearGradient>
	<path style="fill:url(#SVGID_00000038393515997374926380000017588179105863463575_);" d="M477.131,413.805
		c-56.169,0-103.956,5.219-121.744,12.507c-17.42-7.288-64.218-12.507-119.224-12.507c-69.863,0-126.498,8.418-126.498,18.802
		S166.3,451.41,236.163,451.41c55.006,0,101.804-5.219,119.224-12.507c17.788,7.288,65.575,12.507,121.744,12.507
		c71.34,0,129.172-8.418,129.172-18.802S548.47,413.805,477.131,413.805z"/>
	<g>
		<g>
			
				<linearGradient id="SVGID_00000021108632653728731430000002055508935611452584_" gradientUnits="userSpaceOnUse" x1="522.6836" y1="388.996" x2="525.4211" y2="429.5616">
				<stop  offset="0" style="stop-color:#FFD6CA"/>
				<stop  offset="1" style="stop-color:#F9AA9F"/>
			</linearGradient>
			<path style="fill:url(#SVGID_00000021108632653728731430000002055508935611452584_);" d="M509.827,386.019
				c0,0,5.008,15.251,4.553,18.438c-0.455,3.187-1.366,7.284-0.683,8.195c0.683,0.91,2.504,2.504,2.959,5.235
				c0.455,2.732,0,7.74,1.138,8.878c1.138,1.138,5.918,0.455,5.918,0.455s3.187,0.683,4.097,0c0.911-0.683,1.594-0.455,2.732-0.455
				c1.138,0,2.049-1.138,3.414-0.683c1.366,0.455,3.87-0.228,3.87-0.228l-1.821-3.642l-4.553-2.276c0,0-6.146-9.788-6.374-11.837
				c-0.228-2.049-1.138-16.617-1.138-16.617L509.827,386.019z"/>
			
				<linearGradient id="SVGID_00000182500994828676105720000002793360169318097849_" gradientUnits="userSpaceOnUse" x1="337.7704" y1="90.667" x2="340.3133" y2="128.3483">
				<stop  offset="0" style="stop-color:#FFD6CA"/>
				<stop  offset="1" style="stop-color:#F9AA9F"/>
			</linearGradient>
			<path style="fill:url(#SVGID_00000182500994828676105720000002793360169318097849_);" d="M362.661,112.043
				c0,0-16.616-10.323-19.369-11.995c-2.753-1.671-16.812-11.995-17.992-12.093c-1.18-0.098-2.065,1.18-2.065,1.18
				s-0.983,0-1.475,0.492c-0.492,0.492-0.983,1.18-0.983,1.18s-1.081-0.098-1.475,0.295c-0.393,0.393-0.786,1.573-0.786,1.573
				l-1.573,0.688l-0.295,1.278c0,0-1.77,1.278-1.868,2.458c-0.098,1.18,0.786,1.966,2.261,2.95
				c1.475,0.983,13.273,4.818,13.961,5.309c0.688,0.492,7.57,5.801,9.045,6.292c1.475,0.492,3.343,0.688,3.343,0.688l16.321,12.88
				L362.661,112.043z"/>
			
				<linearGradient id="SVGID_00000104672841186785942070000003748756867648617108_" gradientUnits="userSpaceOnUse" x1="530.823" y1="92.7028" x2="376.9822" y2="374.8456">
				<stop  offset="0" style="stop-color:#F5F3FE"/>
				<stop  offset="1" style="stop-color:#D4D2FA"/>
			</linearGradient>
			<path style="fill:url(#SVGID_00000104672841186785942070000003748756867648617108_);" d="M520.765,268.812
				c0,0,4.656,41.903,4.656,50.856c0,8.953,0,74.493,0,74.493l-36.889-12.535c0,0,1.074-40.828,0.358-51.572
				c-0.716-10.744-13.251-77.717-15.4-81.298c-2.149-3.581-42.977-56.586-42.977-56.586s-80.224-40.47-82.373-42.619
				c-2.149-2.149,13.609-38.321,13.609-38.321l109.529,69.497l24.416,15.383l24.354,25.786L520.765,268.812z"/>
			
				<linearGradient id="SVGID_00000092421923354791392510000006616859212129526942_" gradientUnits="userSpaceOnUse" x1="474.2128" y1="168.5559" x2="552.6591" y2="380.2762">
				<stop  offset="0" style="stop-color:#F5F3FE"/>
				<stop  offset="1" style="stop-color:#D4D2FA"/>
			</linearGradient>
			<path style="fill:url(#SVGID_00000092421923354791392510000006616859212129526942_);" d="M520.765,268.812l-0.716-46.917
				l-24.354-25.786l-18.868-11.887c-6.794,3.216-11.933,6.157-11.933,6.157s-2.865,11.819-1.791,17.549
				c1.074,5.73,13.967,36.531,13.967,36.531l13.609-10.386l9.67-8.237l-10.744,33.307c0,0,20.768,25.412,33.467,31.546
				C521.916,279.172,520.765,268.812,520.765,268.812z"/>
		</g>
		<g>
			
				<linearGradient id="SVGID_00000141424179844593193710000003579319334292456629_" gradientUnits="userSpaceOnUse" x1="512.5446" y1="147.3674" x2="451.7195" y2="258.9203">
				<stop  offset="0" style="stop-color:#F5F3FE"/>
				<stop  offset="1" style="stop-color:#D4D2FA"/>
			</linearGradient>
			<path style="fill:url(#SVGID_00000141424179844593193710000003579319334292456629_);" d="M542.605,150.84
				c0,0-10.807-2.879-15.779-3.656c-4.971-0.777-42.721-3.728-44.741-2.02c-2.02,1.709-6.214,13.36-6.214,16.467
				c0,3.107,2.33,5.437,2.486,6.214c0.155,0.777,36.041,6.525,36.041,6.525L542.605,150.84z"/>
			
				<linearGradient id="SVGID_00000109007466337023663990000007513269764399240373_" gradientUnits="userSpaceOnUse" x1="492.9304" y1="112.8205" x2="531.8102" y2="217.7541">
				<stop  offset="0" style="stop-color:#F5F3FE"/>
				<stop  offset="1" style="stop-color:#D4D2FA"/>
			</linearGradient>
			<path style="fill:url(#SVGID_00000109007466337023663990000007513269764399240373_);" d="M516.729,158.525
				c-0.932,0.155-5.593,2.796-5.593,2.796s10.409-12.739,7.146-11.807c-3.262,0.932-8.389,7.301-11.807,9.942
				c-3.418,2.641-4.971,3.262-4.971,3.262l2.952-13.205l-2.659-4.363c-9.737-0.558-18.753-0.798-19.712,0.013
				c-2.02,1.709-6.214,13.36-6.214,16.467c0,3.107,2.33,5.437,2.486,6.214c0.155,0.777,36.041,6.525,36.041,6.525l28.207-23.531
				c0,0-0.395-0.105-1.065-0.28c-3.905,0.98-10.66,2.901-13.005,3.459C525.273,154.796,517.661,158.369,516.729,158.525z"/>
		</g>
		<g>
			
				<linearGradient id="SVGID_00000057860663398844475180000013982930921131133339_" gradientUnits="userSpaceOnUse" x1="533.6609" y1="158.8813" x2="472.8357" y2="270.4344">
				<stop  offset="0" style="stop-color:#F5F3FE"/>
				<stop  offset="1" style="stop-color:#D4D2FA"/>
			</linearGradient>
			<path style="fill:url(#SVGID_00000057860663398844475180000013982930921131133339_);" d="M531.918,230.6
				c0,0,1.977,12.743,0.439,20.652c-1.538,7.909-9.667,24.387-9.667,24.387s-23.728-9.008-33.835-26.584
				c0,0,7.47-21.531,16.698-32.956c0,0-1.318-0.22-4.834,1.758c-3.515,1.977-24.387,17.357-24.387,17.357
				s-14.501-29.88-14.061-38.668c0.439-8.788,9.008-15.819,9.008-15.819s23.892,1.653,28.314,3.353c0,0,7.656,27.624,9.554,30.041
				C511.046,216.539,522.031,229.282,531.918,230.6z"/>
			
				<linearGradient id="SVGID_00000129913604297069105470000016075336848274134163_" gradientUnits="userSpaceOnUse" x1="491.0845" y1="173.7583" x2="554.6262" y2="345.2522">
				<stop  offset="0" style="stop-color:#F5F3FE"/>
				<stop  offset="1" style="stop-color:#D4D2FA"/>
			</linearGradient>
			<path style="fill:url(#SVGID_00000129913604297069105470000016075336848274134163_);" d="M531.918,230.6
				c-9.887-1.318-20.872-14.061-22.77-16.478c-1.898-2.417-9.554-30.041-9.554-30.041s-1.666,15.65-1.338,26.026
				c-1.915,1.445-5.315,5.5-5.315,5.5l-2.628,9.433c3.31-2.376,6.465-4.607,8.524-5.985c0.253-0.639,0.497-1.199,0.735-1.725
				c0.151,0.306,0.309,0.614,0.487,0.928c0.257-0.162,0.486-0.302,0.661-0.4c3.515-1.977,4.833-1.758,4.833-1.758
				c-1.231,1.524-2.43,3.232-3.585,5.041c3.397,4.557,8.754,9.58,13.642,13.698l1.706,7.984l0.357,30.582
				c3.043,1.483,5.017,2.235,5.017,2.235s0.562-1.141,1.415-2.957c0.001-0.002,0.002-0.004,0.003-0.006l0,0
				c2.4-5.108,7.115-15.592,8.249-21.424C533.895,243.343,531.918,230.6,531.918,230.6z M523.903,269.172
				c-0.269-4.317-0.623-8.962-1.054-12.291c-0.556-4.289-2.208-12.416-3.636-19.094c3.92,3.114,7.01,5.272,7.652,5.557
				C528.266,243.966,525.584,259.927,523.903,269.172z"/>
			<g>
				
					<linearGradient id="SVGID_00000159463092603939027170000008772198847745842331_" gradientUnits="userSpaceOnUse" x1="499.558" y1="207.3602" x2="533.0522" y2="207.3602">
					<stop  offset="0" style="stop-color:#435E8E"/>
					<stop  offset="1" style="stop-color:#183E80"/>
				</linearGradient>
				<path style="fill:url(#SVGID_00000159463092603939027170000008772198847745842331_);" d="M505.245,181.717l-5.652,2.363
					c0,0-0.564,13.676,2.82,24.109c3.384,10.433,11.984,21.712,24.25,24.814l6.389-2.154c0,0-15.413-13.777-17.95-17.02
					C512.564,210.586,505.245,181.717,505.245,181.717z"/>
				
					<linearGradient id="SVGID_00000106125791767866858510000011017489908160816273_" gradientUnits="userSpaceOnUse" x1="532.0952" y1="188.3553" x2="502.8387" y2="285.5085">
					<stop  offset="0" style="stop-color:#435E8E"/>
					<stop  offset="1" style="stop-color:#183E80"/>
				</linearGradient>
				<path style="fill:url(#SVGID_00000106125791767866858510000011017489908160816273_);" d="M508.692,219.588
					c0,0,5.284,11.843,5.193,30.975c-0.091,19.132-3.28,28.971-3.28,28.971l8.837,1.275c0,0,1.549-26.693-1.913-44.367
					c-3.462-17.674-6.104-25.964-6.104-25.964l-2.278,3.644L508.692,219.588z"/>
				
					<linearGradient id="SVGID_00000040543709216003143150000003079819628345877389_" gradientUnits="userSpaceOnUse" x1="506.1574" y1="184.2208" x2="482.1573" y2="263.919">
					<stop  offset="0" style="stop-color:#435E8E"/>
					<stop  offset="1" style="stop-color:#183E80"/>
				</linearGradient>
				<path style="fill:url(#SVGID_00000040543709216003143150000003079819628345877389_);" d="M501.951,211.844
					c0,0-2.095,0-4.828,3.371c-2.733,3.371-8.382,23.322-8.928,30.702c-0.547,7.379,0.091,13.028,0.091,13.028l-8.564-4.282
					c0,0,2.004-30.52,12.846-41.178c10.841-10.659,14.576-5.011,14.576-5.011L501.951,211.844z"/>
				
					<linearGradient id="SVGID_00000143613935243001824160000003623009231579163059_" gradientUnits="userSpaceOnUse" x1="503.6007" y1="221.3423" x2="506.7894" y2="211.5032">
					<stop  offset="0" style="stop-color:#435E8E"/>
					<stop  offset="1" style="stop-color:#183E80"/>
				</linearGradient>
				<path style="fill:url(#SVGID_00000143613935243001824160000003623009231579163059_);" d="M501.951,211.844
					c0,0,1.64-3.735,4.191-4.1s5.284,2.733,5.284,2.733s-2.369,9.657-2.824,9.475C508.145,219.77,503.044,217.31,501.951,211.844z"
					/>
			</g>
			
				<linearGradient id="SVGID_00000090272680860220996760000010600153695585387686_" gradientUnits="userSpaceOnUse" x1="553.5226" y1="169.711" x2="492.6974" y2="281.2639">
				<stop  offset="0" style="stop-color:#F5F3FE"/>
				<stop  offset="1" style="stop-color:#D4D2FA"/>
			</linearGradient>
			<path style="fill:url(#SVGID_00000090272680860220996760000010600153695585387686_);" d="M588.229,182.594
				c0,0-7.239,10.553-11.675,16.694c-4.436,6.141-33.948,28.319-43.502,31.56c0,0-17.742-10.406-24.224-25.419
				c-6.483-15.012-3.582-23.713-3.582-23.713l5.459-3.924c0,0,2.218-6.994,3.583-10.236c1.365-3.241,20.983-16.206,28.319-16.718
				l15.524,6.312L588.229,182.594z"/>
			
				<linearGradient id="SVGID_00000002382082810795076080000010408999986936969901_" gradientUnits="userSpaceOnUse" x1="511.9847" y1="120.0981" x2="578.3068" y2="299.0962">
				<stop  offset="0" style="stop-color:#F5F3FE"/>
				<stop  offset="1" style="stop-color:#D4D2FA"/>
			</linearGradient>
			<path style="fill:url(#SVGID_00000002382082810795076080000010408999986936969901_);" d="M507.943,203.242
				c0.278,0.717,0.562,1.439,0.885,2.188c6.483,15.012,24.224,25.419,24.224,25.419c9.396-3.188,38.08-24.681,43.244-31.232
				c-0.967,0.186-1.851,0.386-2.453,0.587c-2.243,0.748-8.524,5.384-8.524,5.384l0.15-6.43l3.739-5.982c0,0-3.589,2.542-4.337,3.888
				c-0.748,1.346-4.187,11.665-4.187,11.665s-4.038,3.739-5.832,4.337c-1.794,0.598-1.944-4.785-1.944-4.785l3.589-6.73
				c0,0-0.897,1.645-3.439,2.094c-2.542,0.449-19.142,6.281-19.142,6.281l-4.486-4.187l1.196-10.468l7.328-13.309l-10.169,6.879
				c0,0-2.393,9.122-2.692,8.674c-0.299-0.449-4.337-8.674-5.084-9.72c-0.748-1.047-3.739-10.468-3.739-10.468l-1.941-9.842
				c-0.012,0.024-0.032,0.053-0.042,0.077c-1.365,3.241-3.582,10.236-3.582,10.236l0.331,7.754c0,0,4.935,13.01,5.832,13.16
				c0.897,0.149-0.449-10.468-0.449-10.468s4.187,10.02,5.533,12.412s7.178,20.488,7.178,20.488l-11.066-7.776L507.943,203.242z"/>
			
				<linearGradient id="SVGID_00000112616088043674935440000000001410670316167561_" gradientUnits="userSpaceOnUse" x1="558.5773" y1="181.2112" x2="568.829" y2="208.8798">
				<stop  offset="0" style="stop-color:#F5F3FE"/>
				<stop  offset="1" style="stop-color:#D4D2FA"/>
			</linearGradient>
			<path style="fill:url(#SVGID_00000112616088043674935440000000001410670316167561_);" d="M538.927,206.819
				c0,0,41.742-20.507,49.302-24.224c0,0-11.95-0.418-17.544,1.59c-5.595,2.008-26.252,14.632-26.252,14.632L538.927,206.819z"/>
			
				<linearGradient id="SVGID_00000135652625434979223700000014819463882135894967_" gradientUnits="userSpaceOnUse" x1="589.5547" y1="155.5788" x2="581.5922" y2="165.4895">
				<stop  offset="0" style="stop-color:#F5F3FE"/>
				<stop  offset="1" style="stop-color:#D4D2FA"/>
			</linearGradient>
			<path style="fill:url(#SVGID_00000135652625434979223700000014819463882135894967_);" d="M575.161,158.445
				c0,0,8.925,6.498,12.044,15.108l-5.267,5.56l-9.996-13.299L575.161,158.445z"/>
			
				<linearGradient id="SVGID_00000052097749067784345810000009736252717900555398_" gradientUnits="userSpaceOnUse" x1="546.1368" y1="138.3011" x2="567.3203" y2="195.1188">
				<stop  offset="0" style="stop-color:#FFD6CA"/>
				<stop  offset="1" style="stop-color:#F9AA9F"/>
			</linearGradient>
			<path style="fill:url(#SVGID_00000052097749067784345810000009736252717900555398_);" d="M575.807,165.62
				c0,0,6.467,9.042,6.467,10.806c0,1.764-14.551,10.472-19.952,12.677c-5.401,2.205-15.433,7.827-16.204,8.047
				c-0.772,0.221,0.551-21.275,1.213-23.48c0.661-2.205,7.606-17.197,7.606-17.197l7.165,1.874L575.807,165.62z"/>
			
				<linearGradient id="SVGID_00000035514111769312871390000015608490062427342742_" gradientUnits="userSpaceOnUse" x1="560.0185" y1="163.9957" x2="549.8815" y2="197.6582">
				<stop  offset="0" style="stop-color:#435E8E"/>
				<stop  offset="1" style="stop-color:#183E80"/>
			</linearGradient>
			<path style="fill:url(#SVGID_00000035514111769312871390000015608490062427342742_);" d="M551.393,171.784
				c0,0,4.024,8.793,11.326,12.22l-17.436,9.389l4.024-22.801L551.393,171.784z"/>
			
				<linearGradient id="SVGID_00000108306308131365133570000007706532814420779913_" gradientUnits="userSpaceOnUse" x1="550.1581" y1="150.7686" x2="557.5502" y2="170.5955">
				<stop  offset="0" style="stop-color:#FFD6CA"/>
				<stop  offset="1" style="stop-color:#F9AA9F"/>
			</linearGradient>
			<path style="fill:url(#SVGID_00000108306308131365133570000007706532814420779913_);" d="M562.834,163.774
				c0.112-0.446,0.435-2.588,0.634-4.702l-1.366-0.725l-7.165-1.874c0,0-5.193,11.21-7.024,15.666
				c1.416-1.129,3.169-2.625,4.449-3.174c2.464-1.056,5.296-2.406,5.296-2.406S562.658,164.478,562.834,163.774z"/>
			
				<linearGradient id="SVGID_00000005246053942095054440000015968564482680420274_" gradientUnits="userSpaceOnUse" x1="547.2685" y1="153.6181" x2="551.1528" y2="208.5349">
				<stop  offset="0" style="stop-color:#F5F3FE"/>
				<stop  offset="1" style="stop-color:#D4D2FA"/>
			</linearGradient>
			<path style="fill:url(#SVGID_00000005246053942095054440000015968564482680420274_);" d="M539.297,195.508
				c0,0,1.984-28.22,12.126-40.456l6.945,0.882c0,0-10.913,18.85-10.472,37.369L539.297,195.508z"/>
			
				<linearGradient id="SVGID_00000011719267825193530410000016593894736677046406_" gradientUnits="userSpaceOnUse" x1="562.2048" y1="174.019" x2="565.1331" y2="215.4179">
				<stop  offset="0" style="stop-color:#F5F3FE"/>
				<stop  offset="1" style="stop-color:#D4D2FA"/>
			</linearGradient>
			<path style="fill:url(#SVGID_00000011719267825193530410000016593894736677046406_);" d="M539.297,195.508
				c0,0,33.408-20.419,47.908-21.955c0,0,1.194,2.9,1.024,9.042c0,0-34.972,14.501-49.302,24.224
				C538.927,206.819,538.194,199.807,539.297,195.508z"/>
		</g>
		<g>
			
				<linearGradient id="SVGID_00000174574581127640861320000015406219685637236362_" gradientUnits="userSpaceOnUse" x1="575.5331" y1="158.0535" x2="550.1287" y2="126.375">
				<stop  offset="0" style="stop-color:#693032"/>
				<stop  offset="1" style="stop-color:#824042"/>
			</linearGradient>
			<path style="fill:url(#SVGID_00000174574581127640861320000015406219685637236362_);" d="M555.294,120.07
				c0,0-5.245,4.011-6.274,9.771c-1.029,5.76,1.337,9.565,1.337,9.565s2.469-8.125,2.674-8.948c0.206-0.823,2.777-6.48,2.777-6.48
				L555.294,120.07z"/>
			
				<linearGradient id="SVGID_00000136405027855511122430000013261948152659039124_" gradientUnits="userSpaceOnUse" x1="557.0074" y1="134.2482" x2="578.1909" y2="191.0658">
				<stop  offset="0" style="stop-color:#FFD6CA"/>
				<stop  offset="1" style="stop-color:#F9AA9F"/>
			</linearGradient>
			<path style="fill:url(#SVGID_00000136405027855511122430000013261948152659039124_);" d="M575.807,165.62
				c0,0-4.38,3.13-8.24,2.92c-3.86-0.21-9.91-1.98-9.91-1.98l1.3-4.42l1-3.41l10.41-7.32l1.16-0.81l3.44,1.25L575.807,165.62z"/>
			
				<linearGradient id="SVGID_00000067236409850954629780000014234154265138457009_" gradientUnits="userSpaceOnUse" x1="557.1718" y1="162.5236" x2="567.8383" y2="156.066">
				<stop  offset="0" style="stop-color:#FFD6CA"/>
				<stop  offset="1" style="stop-color:#F9AA9F"/>
			</linearGradient>
			<path style="fill:url(#SVGID_00000067236409850954629780000014234154265138457009_);" d="M570.907,153.62
				c0,0-0.84,4.59-5.11,6.78c-2.29,1.17-4.9,1.6-6.84,1.74l1-3.41l10.41-7.32L570.907,153.62z"/>
			
				<linearGradient id="SVGID_00000134960552926689134950000018285315110405921965_" gradientUnits="userSpaceOnUse" x1="557.7809" y1="133.9598" x2="578.9644" y2="190.7773">
				<stop  offset="0" style="stop-color:#FFD6CA"/>
				<stop  offset="1" style="stop-color:#F9AA9F"/>
			</linearGradient>
			<path style="fill:url(#SVGID_00000134960552926689134950000018285315110405921965_);" d="M555.677,123.068
				c0,0-4.693,6.466-5.319,8.656c-0.626,2.19,0.521,4.484-0.209,6.153c-0.73,1.669-5.11,5.84-5.006,6.57
				c0.104,0.73,1.564,1.877,1.564,2.19c0,0.313,0.521,0.209,0.209,1.147c-0.313,0.939-0.73,1.252-0.417,1.669
				c0.313,0.417,0.834,1.147,0.834,1.147s-0.834,0.626-0.73,1.251c0.104,0.626,0.73,1.147,0.834,1.564
				c0.104,0.417-0.209,2.712-0.209,3.546c0,0.834,0.834,1.251,2.503,2.19c1.669,0.939,8.343,1.877,16.373-1.043
				c8.03-2.92,13.14-17.833,11.055-23.673C575.074,128.595,555.677,123.068,555.677,123.068z"/>
			
				<linearGradient id="SVGID_00000044162715388580171260000011236532847649708178_" gradientUnits="userSpaceOnUse" x1="567.1912" y1="130.4512" x2="588.3748" y2="187.2692">
				<stop  offset="0" style="stop-color:#FFD6CA"/>
				<stop  offset="1" style="stop-color:#F9AA9F"/>
			</linearGradient>
			<path style="fill:url(#SVGID_00000044162715388580171260000011236532847649708178_);" d="M570.277,149.453
				c0,0,1.982-4.172,5.319-4.172c3.337,0,3.65,4.067,1.356,6.153c-2.294,2.086-5.84,2.607-5.84,2.607L570.277,149.453z"/>
			
				<linearGradient id="SVGID_00000052063926991054361370000002307444126006316171_" gradientUnits="userSpaceOnUse" x1="548.6729" y1="150.2836" x2="550.127" y2="152.1137">
				<stop  offset="0" style="stop-color:#FFD6CA"/>
				<stop  offset="1" style="stop-color:#F9AA9F"/>
			</linearGradient>
			<path style="fill:url(#SVGID_00000052063926991054361370000002307444126006316171_);" d="M550.789,151.38
				c-0.164-0.187-0.467-0.091-0.69-0.093c-0.235-0.002-0.469-0.024-0.7-0.069c-0.237-0.046-0.458-0.125-0.688-0.196
				c-0.231-0.071-0.472-0.102-0.703-0.18c-0.056-0.019-0.098,0.059-0.057,0.098c0.173,0.166,0.378,0.366,0.597,0.468
				c0.237,0.111,0.504,0.178,0.759,0.23c0.253,0.051,0.511,0.081,0.769,0.088c0.234,0.006,0.612,0.054,0.734-0.19
				C550.837,151.482,550.829,151.426,550.789,151.38z"/>
			
				<linearGradient id="SVGID_00000015319107060322378550000002815338567706473915_" gradientUnits="userSpaceOnUse" x1="553.767" y1="138.6167" x2="558.5986" y2="147.1846">
				<stop  offset="0" style="stop-color:#693032"/>
				<stop  offset="1" style="stop-color:#824042"/>
			</linearGradient>
			<path style="fill:url(#SVGID_00000015319107060322378550000002815338567706473915_);" d="M557.61,140.559
				c-0.147,0.052-0.256,0.145-0.359,0.25c-0.026-0.081-0.057-0.161-0.11-0.246c-0.104-0.167-0.226-0.325-0.361-0.468
				c-0.267-0.283-0.604-0.531-0.97-0.67c-0.39-0.148-0.835-0.186-1.248-0.137c-0.213,0.025-0.422,0.07-0.624,0.143
				c-0.206,0.074-0.345,0.182-0.499,0.337c-0.026,0.026,0.001,0.065,0.034,0.059c0.183-0.036,0.364-0.06,0.546-0.102
				c0.19-0.044,0.383-0.064,0.578-0.063c0.14,0.001,0.275,0.026,0.409,0.051c-0.525,0.101-1.097,0.794-1.38,1.747
				c-0.337,1.138-0.133,2.202,0.457,2.377c0.59,0.175,1.342-0.605,1.679-1.743c0.282-0.949,0.182-1.84-0.201-2.213
				c0.026,0.011,0.053,0.016,0.079,0.028c0.294,0.137,0.558,0.308,0.784,0.542c0.115,0.119,0.217,0.248,0.305,0.389
				c0.087,0.139,0.202,0.267,0.28,0.409c0.053,0.098,0.2,0.116,0.276,0.036c0.179-0.188,0.378-0.343,0.454-0.595
				C557.762,140.616,557.686,140.533,557.61,140.559z"/>
			
				<linearGradient id="SVGID_00000042704987421729334460000013170376322754734782_" gradientUnits="userSpaceOnUse" x1="555.634" y1="138.5285" x2="557.7493" y2="135.759">
				<stop  offset="0" style="stop-color:#693032"/>
				<stop  offset="1" style="stop-color:#824042"/>
			</linearGradient>
			<path style="fill:url(#SVGID_00000042704987421729334460000013170376322754734782_);" d="M559.695,137.29
				c-0.769-0.777-1.894-1.202-2.963-1.353c-0.567-0.08-1.109-0.082-1.673,0.023c-0.255,0.048-0.507,0.113-0.752,0.196
				c-0.282,0.096-0.498,0.248-0.731,0.43c-0.169,0.132-0.033,0.467,0.182,0.44c0.945-0.116,1.87-0.281,2.827-0.159
				c0.971,0.124,1.797,0.549,2.612,1.067C559.596,138.186,560.02,137.617,559.695,137.29z"/>
			
				<linearGradient id="SVGID_00000168106513123461458910000012835176219604064420_" gradientUnits="userSpaceOnUse" x1="584.1577" y1="156.4084" x2="597.6566" y2="174.6971">
				<stop  offset="0" style="stop-color:#693032"/>
				<stop  offset="1" style="stop-color:#824042"/>
			</linearGradient>
			<path style="fill:url(#SVGID_00000168106513123461458910000012835176219604064420_);" d="M580.628,155.275
				c0,0-0.174,4.79,2.351,9.58c2.526,4.79,8.796,8.273,11.409,10.538c2.613,2.264,3.745,10.277,2.961,13.499
				c0,0,4.703-6.445,3.745-13.76l1.132,1.393c0,0,1.916-7.316-3.048-14.37c-4.964-7.054-13.499-10.538-13.499-10.538
				L580.628,155.275z"/>
			
				<linearGradient id="SVGID_00000054984938111520274120000003632831897590683531_" gradientUnits="userSpaceOnUse" x1="582.7892" y1="146.424" x2="581.5421" y2="162.0135">
				<stop  offset="0" style="stop-color:#E56D6F"/>
				<stop  offset="1" style="stop-color:#D7292D"/>
			</linearGradient>
			<path style="fill:url(#SVGID_00000054984938111520274120000003632831897590683531_);" d="M585.121,148.354
				c0,0,1.131,2.366,0.823,3.394c-0.309,1.029-4.217,5.451-5.451,4.628c-1.234-0.823-1.851-3.188-1.851-3.188L585.121,148.354z"/>
			
				<linearGradient id="SVGID_00000170254569976460081850000000174233604424923783_" gradientUnits="userSpaceOnUse" x1="588.3112" y1="147.806" x2="562.9068" y2="116.1276">
				<stop  offset="0" style="stop-color:#693032"/>
				<stop  offset="1" style="stop-color:#824042"/>
			</linearGradient>
			<path style="fill:url(#SVGID_00000170254569976460081850000000174233604424923783_);" d="M555.294,120.07
				c0,0-0.823,4.628,0.206,9.462c1.029,4.834,6.788,14.296,10.182,16.971c0,0-3.086-5.76-2.983-8.948c0,0,5.245,8.845,5.862,9.771
				c0.617,0.926,0.823,3.908,0.823,3.908s3.516-5.336,4.97-5.285c2.671,0.093,2.28,2.845,1.407,4.257
				c-0.873,1.412-2.571,2.263-2.571,2.263s0.72,1.337,1.131,1.954c0.411,0.617,0.411,1.234,0.411,1.234l0.411,2.16
				c0,0,10.697-7.097,14.194-14.708c3.497-7.611,2.571-18.616-1.543-23.347C583.681,115.03,574.63,109.887,555.294,120.07z"/>
			
				<linearGradient id="SVGID_00000183212272619606820870000013649437199773574037_" gradientUnits="userSpaceOnUse" x1="577.8972" y1="156.1578" x2="552.4927" y2="124.4793">
				<stop  offset="0" style="stop-color:#693032"/>
				<stop  offset="1" style="stop-color:#824042"/>
			</linearGradient>
			<path style="fill:url(#SVGID_00000183212272619606820870000013649437199773574037_);" d="M556.528,120.687
				c0,0-5.245,6.171-5.245,11.108c0,0,2.057-5.245,5.76-7.714L556.528,120.687z"/>
			
				<linearGradient id="SVGID_00000031894516871919711900000006978193562601812648_" gradientUnits="userSpaceOnUse" x1="575.9669" y1="149.1158" x2="571.9822" y2="149.1158">
				<stop  offset="0" style="stop-color:#693032"/>
				<stop  offset="1" style="stop-color:#824042"/>
			</linearGradient>
			<path style="fill:url(#SVGID_00000031894516871919711900000006978193562601812648_);" d="M573.73,147.879
				c0.296-0.224,0.628-0.388,0.981-0.364c0.359,0.024,0.722,0.197,1.015,0.467c-0.195-0.353-0.549-0.632-0.977-0.729
				c-0.447-0.108-0.893,0.09-1.242,0.305c-0.358,0.232-0.648,0.561-0.887,0.882c-0.24,0.316-0.507,0.666-0.612,1.125
				c-0.109,0.483,0.098,1.03,0.549,1.294c0.447,0.283,1.097,0.143,1.401-0.273c0.31-0.389,0.384-0.952,0.138-1.402
				c-0.228-0.398-0.592-0.588-0.941-0.717C573.327,148.247,573.51,148.043,573.73,147.879z M573.643,149.424
				c0.134,0.256,0.084,0.606-0.095,0.839c-0.171,0.234-0.492,0.296-0.733,0.155c-0.242-0.139-0.392-0.462-0.335-0.755
				c0.047-0.267,0.204-0.529,0.381-0.789C573.2,148.989,573.52,149.175,573.643,149.424z"/>
		</g>
		
			<linearGradient id="SVGID_00000015344997849979349880000012170169741677132208_" gradientUnits="userSpaceOnUse" x1="533.9872" y1="185.6909" x2="543.6777" y2="223.7259">
			<stop  offset="0" style="stop-color:#F5F3FE"/>
			<stop  offset="1" style="stop-color:#D4D2FA"/>
		</linearGradient>
		<path style="fill:url(#SVGID_00000015344997849979349880000012170169741677132208_);" d="M552.927,207.99
			c-0.17,1.32-0.52,2.82-1.13,4.46c-0.16,0.43-0.33,0.87-0.53,1.32c-1.59,3.63-6.82,9.45-11.22,13.04c-2,1.64-3.84,2.81-5.07,3.11
			c-1.32,0.32-2.34-0.01-3.12-0.58c-0.51-1.84-0.8-3.53-1.09-4.85c-0.81-3.8,3.67-11.54,7.74-16.69c0.58-0.73,1.19-1.41,1.83-2.02
			c3.61-3.43,7.98-4.58,11-0.52c0.21,0.28,0.42,0.58,0.61,0.91C551.947,206.17,552.337,206.86,552.927,207.99z"/>
		<g>
			
				<linearGradient id="SVGID_00000166650099215107348890000002567879073855715225_" gradientUnits="userSpaceOnUse" x1="585.8837" y1="187.3562" x2="525.0585" y2="298.909">
				<stop  offset="0" style="stop-color:#F5F3FE"/>
				<stop  offset="1" style="stop-color:#D4D2FA"/>
			</linearGradient>
			<path style="fill:url(#SVGID_00000166650099215107348890000002567879073855715225_);" d="M588.229,182.594
				c0,0,4.542,9.876,4.008,17.345c-0.534,7.469-4.09,12.271-6.58,15.116c-2.49,2.845-4.624,9.425-7.469,12.271
				c-2.845,2.845-19.207,16.895-25.253,17.606c-6.047,0.711-3.912-15.65-3.912-15.65s0.178-5.335,6.224-13.871
				C561.293,206.875,573.728,188.369,588.229,182.594z"/>
			
				<linearGradient id="SVGID_00000046299004432288051510000003523503844976304529_" gradientUnits="userSpaceOnUse" x1="563.2655" y1="238.6867" x2="540.822" y2="202.8725">
				<stop  offset="0" style="stop-color:#F5F3FE"/>
				<stop  offset="1" style="stop-color:#D4D2FA"/>
			</linearGradient>
			<path style="fill:url(#SVGID_00000046299004432288051510000003523503844976304529_);" d="M565.443,227.665
				c-0.001-0.006-0.015-0.028-0.018-0.037C565.442,227.679,565.452,227.704,565.443,227.665z M562.339,219.667
				c-1.075-1.552-3.82-4.895-4.298-5.372c-0.256-0.256-0.786-0.71-1.334-0.955c-0.52,0.738-1.01,1.435-1.461,2.071
				c-0.705,0.995-1.323,1.942-1.877,2.847c0.008,0.113,0,0.218,0.016,0.334c0.358,2.626,0.955,23.399,0.955,23.399
				s3.343-2.626,4.298-6.805c0.955-4.178,1.791-10.983,1.433-13.012c-0.358-2.03-1.074-4.059-1.074-4.059s6.162,8.836,6.428,9.514
				C565.219,227.05,563.327,221.094,562.339,219.667z"/>
			
				<linearGradient id="SVGID_00000166638126958451791960000007086458603163775378_" gradientUnits="userSpaceOnUse" x1="527.6938" y1="178.319" x2="570.2748" y2="293.2417">
				<stop  offset="0" style="stop-color:#F5F3FE"/>
				<stop  offset="1" style="stop-color:#D4D2FA"/>
			</linearGradient>
			<path style="fill:url(#SVGID_00000166638126958451791960000007086458603163775378_);" d="M551.942,206.169
				c0,0,5.971,10.45,6.107,16.557c0.136,6.107-0.814,13.979-1.764,16.014c-0.95,2.036-3.8,6.514-3.8,6.514s-7.6-0.136-13.843-5.157
				c-6.243-5.021-7.057-11.807-7.872-15.607c-0.814-3.8,3.664-11.536,7.736-16.693C542.578,202.64,548.414,200.197,551.942,206.169z
				"/>
			
				<linearGradient id="SVGID_00000163786199859316917820000018165319570314722466_" gradientUnits="userSpaceOnUse" x1="509.8446" y1="104.5476" x2="582.3633" y2="299.055">
				<stop  offset="0" style="stop-color:#FFD6CA"/>
				<stop  offset="1" style="stop-color:#F9AA9F"/>
			</linearGradient>
			<path style="fill:url(#SVGID_00000163786199859316917820000018165319570314722466_);" d="M551.797,212.45
				c-0.16,0.43-0.33,0.87-0.53,1.32c-1.59,3.63-6.82,9.45-11.22,13.04c-0.47-6.77-0.19-14.42,0.29-21.03
				c0.68-9.19,1.76-16.37,1.76-16.37s-2.19-3.21-2.58-4.54s-0.47-6.88-0.47-6.88s-4.22-5-4.38-5.63c-0.03-0.14-0.04-0.29-0.01-0.44
				c0.08-0.56,0.5-1.21,1.11-1.52c0.78-0.39,1.33-0.31,1.33-0.31s0.62-1.17,1.09-1.56c0.47-0.39,2.27-0.32,2.27-0.32
				s1.72-1.17,2.11-1.09s1.18,0.31,1.18,0.31s1.48-1.01,1.72-1.01c0.23,0,3.2,1.79,3.52,2.11c0.31,0.31,0.55,1.41,0.55,1.41
				c0,5.55,1.13,24.48,1.8,35.32C551.557,208.69,551.727,211.31,551.797,212.45z"/>
			
				<linearGradient id="SVGID_00000092444575229673518150000014889944981181283515_" gradientUnits="userSpaceOnUse" x1="540.9835" y1="167.4186" x2="541.3181" y2="168.3162">
				<stop  offset="0" style="stop-color:#FFD6CA"/>
				<stop  offset="1" style="stop-color:#F9AA9F"/>
			</linearGradient>
			<path style="fill:url(#SVGID_00000092444575229673518150000014889944981181283515_);" d="M544.632,166.854
				c-0.441,0.274-0.885,0.576-0.885,0.576l2.824,1.879L544.632,166.854z M540.457,168.21l3.386,1.317l-2.4-1.936
				C540.935,167.886,540.457,168.21,540.457,168.21z M537.097,170.09l4.183,0.965l-3.471-2.102
				C537.44,169.444,537.097,170.09,537.097,170.09z"/>
			
				<linearGradient id="SVGID_00000157289914589536151970000006250660511674163364_" gradientUnits="userSpaceOnUse" x1="532.7116" y1="162.9147" x2="542.1822" y2="188.3163">
				<stop  offset="0" style="stop-color:#FFD6CA"/>
				<stop  offset="1" style="stop-color:#F9AA9F"/>
			</linearGradient>
			<path style="fill:url(#SVGID_00000157289914589536151970000006250660511674163364_);" d="M539.047,177.99c0,0-4.22-5-4.38-5.63
				c-0.03-0.14-0.04-0.29-0.01-0.44c0.55,0.41,1.69,1.23,2.01,1.29c0.42,0.09,0.5-0.46,0.5-0.46s1.73,2.65,1.86,2.9
				C539.147,175.91,539.047,177.99,539.047,177.99z"/>
		</g>
		<g>
			
				<linearGradient id="SVGID_00000088826127488130553850000007792297154579633055_" gradientUnits="userSpaceOnUse" x1="473.194" y1="123.1541" x2="503.278" y2="204.3487">
				<stop  offset="0" style="stop-color:#F5F3FE"/>
				<stop  offset="1" style="stop-color:#D4D2FA"/>
			</linearGradient>
			<path style="fill:url(#SVGID_00000088826127488130553850000007792297154579633055_);" d="M502.247,155.52
				c-0.31,3.05-2.85,10.59-9.47,14.05c-0.57,0.3-1.17,0.55-1.79,0.77c-6.52,2.25-15,0.04-15,0.04c-1.63-1.12-8.25-11.7-8.45-15.06
				c-0.21-3.36,13.03-13.74,16.89-14.36c3.76-0.59,13.07,4,13.62,4.27c0.01,0.01,0.02,0.01,0.02,0.01
				C499.497,146.66,502.547,152.47,502.247,155.52z"/>
			
				<linearGradient id="SVGID_00000031170993629949286140000017418296172822100116_" gradientUnits="userSpaceOnUse" x1="508.5127" y1="174.9955" x2="494.6703" y2="160.2371">
				<stop  offset="0" style="stop-color:#F5F3FE"/>
				<stop  offset="1" style="stop-color:#D4D2FA"/>
			</linearGradient>
			<path style="fill:url(#SVGID_00000031170993629949286140000017418296172822100116_);" d="M502.247,155.52
				c-0.08,0.8-0.32,1.92-0.75,3.19c-1.18,3.55-3.84,8.31-8.72,10.86c-0.57,0.3-1.17,0.55-1.79,0.77c-2.42-0.19-4.72-0.62-5.54-1.38
				c-1.63-1.53-4.58-4.79-4.88-8.35c0-0.03-0.01-0.06,0-0.1c-0.16-3.34,6.2-12.56,9.6-15.06c0.32-0.24,0.62-0.41,0.88-0.52
				c2.91-1.17,6.67,0.18,7,0.3c0.01,0.01,0.02,0.01,0.02,0.01c0.38,0.38,0.88,1.08,1.4,1.95
				C500.897,149.58,502.467,153.29,502.247,155.52z"/>
			
				<linearGradient id="SVGID_00000118376056983782302420000013696943068538949531_" gradientUnits="userSpaceOnUse" x1="541.6187" y1="155.3987" x2="470.9533" y2="153.3875">
				<stop  offset="0" style="stop-color:#FFD6CA"/>
				<stop  offset="1" style="stop-color:#F9AA9F"/>
			</linearGradient>
			<path style="fill:url(#SVGID_00000118376056983782302420000013696943068538949531_);" d="M535.227,160.3
				c-0.11,0.92-1.02,3.06-1.02,3.06s-3.06,0.1-3.67,0.2c-0.61,0.1-5.8-1.32-5.8-1.32l-7.12-6.01c0,0-7.6,1.31-16.12,2.48
				c-8,1.11-16.8,2.1-20.93,1.8c-0.16-3.34,6.2-12.56,9.6-15.06c0.5,0.06,4.96,0.99,9.3,1.74c2.32,0.41,4.61,0.76,6.24,0.9
				c4.78,0.41,20.56-0.92,21.78-0.81c1.22,0.1,3.66,0.71,4.27,1.32c0.62,0.61,1.02,1.12,1.12,1.53c0.11,0.4-0.2,1.32-0.2,1.32
				s1.12,0,1.32,0.61c0.21,0.61-0.2,3.56-0.2,3.56l1.32,0.31l-0.61,2.95C534.507,158.88,535.327,159.39,535.227,160.3z"/>
			
				<linearGradient id="SVGID_00000162335597453680355040000013076128823560532636_" gradientUnits="userSpaceOnUse" x1="541.4428" y1="161.5792" x2="470.7775" y2="159.568">
				<stop  offset="0" style="stop-color:#FFD6CA"/>
				<stop  offset="1" style="stop-color:#F9AA9F"/>
			</linearGradient>
			<path style="fill:url(#SVGID_00000162335597453680355040000013076128823560532636_);" d="M517.617,156.23
				c0,0,0.035,0.037,0.098,0.106c0.656,0.707,4.4,4.747,5.04,5.534c0.702,0.864,5.074,4.264,6.532,4.426
				c1.458,0.162-0.108-3.779-0.108-3.779s-2.753-4.48-4.534-5.83S517.617,156.23,517.617,156.23z"/>
			
				<linearGradient id="SVGID_00000177450555475892786180000001876386016994048170_" gradientUnits="userSpaceOnUse" x1="537.008" y1="155.7834" x2="523.3171" y2="170.2379">
				<stop  offset="0" style="stop-color:#FFD6CA"/>
				<stop  offset="1" style="stop-color:#F9AA9F"/>
			</linearGradient>
			<path style="fill:url(#SVGID_00000177450555475892786180000001876386016994048170_);" d="M529.853,164.866l-0.247-0.567
				l-1.916-1.359c0,0-0.494,0.464-0.556,1.421c-0.02,0.316,0.001,0.646,0.037,0.95c0.862,0.537,1.643,0.933,2.116,0.986
				C529.914,166.366,529.98,165.675,529.853,164.866z"/>
			<g>
				
					<linearGradient id="SVGID_00000004544877937864774550000013768184994627077054_" gradientUnits="userSpaceOnUse" x1="522.4613" y1="150.3842" x2="524.8345" y2="156.7496">
					<stop  offset="0" style="stop-color:#FFD6CA"/>
					<stop  offset="1" style="stop-color:#F9AA9F"/>
				</linearGradient>
				<path style="fill:url(#SVGID_00000004544877937864774550000013768184994627077054_);" d="M528.609,151.787
					c0.01-0.025,0.016-0.041,0.016-0.041s-0.83,1.272-2.378,1.991c-1.549,0.719-6.25,1.549-7.964,0.608c0,0,1.991,1.383,3.982,1.77
					c0.384,0.075,0.686,0.207,0.952,0.36c0.214-0.085,0.924-0.36,1.205-0.36c0.332,0,1.715-0.387,2.433-0.995
					C527.524,154.554,528.48,152.122,528.609,151.787z"/>
				
					<linearGradient id="SVGID_00000020390942302870017530000001192223580102437309_" gradientUnits="userSpaceOnUse" x1="526.4064" y1="148.8876" x2="532.0784" y2="164.1008">
					<stop  offset="0" style="stop-color:#FFD6CA"/>
					<stop  offset="1" style="stop-color:#F9AA9F"/>
				</linearGradient>
				<path style="fill:url(#SVGID_00000020390942302870017530000001192223580102437309_);" d="M534.507,158.88
					c0,0-0.739,2.213-1.015,2.49c-0.227,0.227-3.517,0.977-4.68,1.237c-0.057-0.032-0.114-0.065-0.187-0.076
					c-0.355-0.051-0.887-0.381-0.805-0.819c1.179-0.446,4.534-1.729,4.898-2.002c0.317-0.238,1.145-2.633,1.588-3.971l-0.509-0.12
					c0,0-0.748,2.597-1.356,3.095c-0.477,0.391-3.027,1.46-4.104,1.903c-0.11-0.028-0.21-0.15-0.21-0.52
					c0-0.141,0.005-0.283,0.01-0.422c0.873-0.712,2.737-2.254,3.032-2.675c0.387-0.553,1.493-4.701,1.493-4.701
					s-0.94,2.489-1.549,3.595c-0.608,1.106-2.888,2.594-2.888,2.594c-0.735,0.592-1.523,1.133-1.813,1.277
					c-0.27,0.135-0.831-0.048-1.379-0.321c0.318,0.86,0.704,2.103,0.881,2.367c0.221,0.332,2.489,1.88,2.489,1.88l0.666-0.571
					c1.154-0.212,4.179-0.845,4.588-1.255C534.156,161.37,534.507,158.88,534.507,158.88z"/>
			</g>
			
				<linearGradient id="SVGID_00000046318110205318498200000014591907879629650592_" gradientUnits="userSpaceOnUse" x1="541.3593" y1="164.5131" x2="470.6945" y2="162.502">
				<stop  offset="0" style="stop-color:#FFD6CA"/>
				<stop  offset="1" style="stop-color:#F9AA9F"/>
			</linearGradient>
			<path style="fill:url(#SVGID_00000046318110205318498200000014591907879629650592_);" d="M527.775,165.271
				c0,0-0.702-0.918-0.432-1.835c0.27-0.918,0.918-1.673,1.673-1.457c0.756,0.216,2.753,1.835,2.861,2.429
				c0.108,0.594-0.432,1.62-1.08,1.835C530.15,166.458,528.963,166.674,527.775,165.271z"/>
		</g>
	</g>
	<g>
		<g>
			
				<linearGradient id="SVGID_00000034775800643244031050000005300695715342287761_" gradientUnits="userSpaceOnUse" x1="303.2672" y1="433.9992" x2="289.8089" y2="406.2085">
				<stop  offset="0" style="stop-color:#FFD6CA"/>
				<stop  offset="1" style="stop-color:#F9AA9F"/>
			</linearGradient>
			<path style="fill:url(#SVGID_00000034775800643244031050000005300695715342287761_);" d="M277.412,409.172
				c0,0-4.02,6.817-4.02,9.089c0,2.272-0.524,3.146,1.573,4.37c2.097,1.223,19.751,0.349,22.897,0.699
				c3.146,0.35,13.284,1.923,16.08,2.097c2.796,0.175,6.816,0.524,7.166-0.874c0.35-1.398,0.699-2.797-1.573-2.971
				c-2.272-0.175-4.544-1.049-4.544-1.049s-10.487-4.02-12.06-6.117c-1.573-2.097-3.496-5.768-3.496-5.768L277.412,409.172z"/>
			
				<linearGradient id="SVGID_00000114055111000343202990000013106870749605561768_" gradientUnits="userSpaceOnUse" x1="167.4137" y1="424.5841" x2="142.8704" y2="414.0253">
				<stop  offset="0" style="stop-color:#FFD6CA"/>
				<stop  offset="1" style="stop-color:#F9AA9F"/>
			</linearGradient>
			<path style="fill:url(#SVGID_00000114055111000343202990000013106870749605561768_);" d="M145.101,407.948
				c0,0-4.195,6.292-4.719,8.215c-0.524,1.923-0.349,5.768,0.35,6.467c0.699,0.699,5.593,3.845,6.817,3.845
				c1.223,0,3.146-0.524,3.146-0.524s1.398,0.874,3.146,0.874c1.748,0,2.622-0.874,3.496-0.699c0.874,0.175,4.02,0.35,4.02,0.35
				l3.496-0.699c0,0,3.671,0.349,4.195-0.699c0.524-1.049-0.175-4.37-1.049-4.894c-0.874-0.524-2.447-2.971-2.447-2.971l0.699-3.671
				l-5.593-2.447L145.101,407.948z"/>
			
				<linearGradient id="SVGID_00000029030433509108353110000012613697734639408264_" gradientUnits="userSpaceOnUse" x1="181.0568" y1="-265.076" x2="231.2069" y2="443.9403">
				<stop  offset="0" style="stop-color:#F5F3FE"/>
				<stop  offset="1" style="stop-color:#D4D2FA"/>
			</linearGradient>
			<path style="fill:url(#SVGID_00000029030433509108353110000012613697734639408264_);" d="M198.283,256.614
				c0,0-22.1,50.91-26.836,60.381c-4.736,9.471-33.15,92.348-33.15,92.348s31.177,8.288,34.334,6.709
				c3.157-1.579,36.308-72.221,40.649-78.535c4.341-6.314,31.572-41.043,31.572-41.043s14.602,29.204,18.943,39.465
				c4.341,10.261,12.234,33.94,12.234,33.94l-2.763,41.438c0,0,22.1,1.973,36.702-1.579c0,0,6.516-46.892,4.736-63.933
				c-2.631-25.19-35.913-91.164-35.913-91.164s-21.311-33.94-22.89-33.545C254.323,221.491,198.283,256.614,198.283,256.614z"/>
			
				<linearGradient id="SVGID_00000156587348053396689840000013176438350437408405_" gradientUnits="userSpaceOnUse" x1="313.9353" y1="335.176" x2="283.4916" y2="370.1171">
				<stop  offset="0" style="stop-color:#F5F3FE"/>
				<stop  offset="1" style="stop-color:#D4D2FA"/>
			</linearGradient>
			<path style="fill:url(#SVGID_00000156587348053396689840000013176438350437408405_);" d="M306.188,345.603
				c0,0-12.108,10.033-15.914,13.492c-3.805,3.46-9.341,10.033-9.341,10.033l13.492-7.611L306.188,345.603z"/>
			
				<linearGradient id="SVGID_00000150101278808786325080000007286168949928885436_" gradientUnits="userSpaceOnUse" x1="305.0265" y1="327.4139" x2="274.5828" y2="362.355">
				<stop  offset="0" style="stop-color:#F5F3FE"/>
				<stop  offset="1" style="stop-color:#D4D2FA"/>
			</linearGradient>
			<path style="fill:url(#SVGID_00000150101278808786325080000007286168949928885436_);" d="M298.231,342.144
				c1.941,0.253-15.914,4.151-15.914,4.151S290.274,341.106,298.231,342.144z"/>
			
				<linearGradient id="SVGID_00000078034149029123385620000005063477578874438537_" gradientUnits="userSpaceOnUse" x1="212.5617" y1="329.7308" x2="199.6927" y2="312.141">
				<stop  offset="0" style="stop-color:#F5F3FE"/>
				<stop  offset="1" style="stop-color:#D4D2FA"/>
			</linearGradient>
			<path style="fill:url(#SVGID_00000078034149029123385620000005063477578874438537_);" d="M201.71,345.949l15.568-40.822
				c0,0-4.497,17.298-7.957,25.946C205.862,339.722,201.71,345.949,201.71,345.949z"/>
			
				<linearGradient id="SVGID_00000094603677262220013940000010845450790595744698_" gradientUnits="userSpaceOnUse" x1="264.916" y1="300.7407" x2="208.4126" y2="223.51">
				<stop  offset="0" style="stop-color:#F5F3FE"/>
				<stop  offset="1" style="stop-color:#D4D2FA"/>
			</linearGradient>
			<path style="fill:url(#SVGID_00000094603677262220013940000010845450790595744698_);" d="M269.199,333.96l-15.617-54.232
				l5.111,5.111l2.555,14.765c0,0,6.531,1.704,6.247,0c-0.284-1.704-1.136-29.246-1.136-29.246l16.067-8.339
				c-2.24-4.612-3.635-7.378-3.635-7.378s-21.311-33.94-22.89-33.545c-1.579,0.395-57.619,35.518-57.619,35.518
				s-2.391,5.508-5.768,13.237c4.467,1.754,9.42,3.49,11.946,3.63c5.111,0.284,25.554,0.284,25.554,0.284s-1.42,26.69-0.284,26.69
				c1.136,0,7.95,1.987,8.518,0.568c0.568-1.42,1.988-15.9,1.988-15.9l4.615,11.351l4.755-17.598L269.199,333.96z"/>
		</g>
		<g>
			
				<linearGradient id="SVGID_00000167372416438036068100000013174739150078087314_" gradientUnits="userSpaceOnUse" x1="226.3753" y1="126.4566" x2="236.6187" y2="271.2766">
				<stop  offset="0" style="stop-color:#F5F3FE"/>
				<stop  offset="1" style="stop-color:#D4D2FA"/>
			</linearGradient>
			<path style="fill:url(#SVGID_00000167372416438036068100000013174739150078087314_);" d="M210.659,227.952l-23.159,31.451
				c0,0,21.977,5.233,26.79,6.698c4.814,1.465,33.697-2.093,33.697-2.093l3.349-27.209l5.023,27.418c0,0,10.674-1.674,16.116-2.721
				c5.442-1.047,11.302-6.07,11.302-6.07l-13.797-24.179l-15.505-1.146L210.659,227.952z"/>
			
				<linearGradient id="SVGID_00000059299271518264586470000007593269000002790534_" gradientUnits="userSpaceOnUse" x1="250.2907" y1="221.505" x2="207.4822" y2="270.5477">
				<stop  offset="0" style="stop-color:#F5F3FE"/>
				<stop  offset="1" style="stop-color:#D4D2FA"/>
			</linearGradient>
			<path style="fill:url(#SVGID_00000059299271518264586470000007593269000002790534_);" d="M219.162,235.435
				c4.902,2.179,9.079,4.539,12.165,4.721c3.087,0.182,6.9,1.997,11.439,1.634c2.441-0.195,5.246-0.082,7.97-0.127l0.599-4.864
				l0.883,4.822c1.814-0.082,3.553-0.277,5.074-0.739c4.176-1.271,14.526-5.084,14.526-5.084l0.452-0.536l-2.29-4.014l-9.445-0.698
				l-23.76,1.98c0,0-5.686-1.975-10.873-3.83l-15.243-0.748C210.659,227.952,214.26,233.256,219.162,235.435z"/>
			
				<linearGradient id="SVGID_00000082362849479537951240000009215558963549702562_" gradientUnits="userSpaceOnUse" x1="239.988" y1="125.4936" x2="250.2314" y2="270.3139">
				<stop  offset="0" style="stop-color:#F5F3FE"/>
				<stop  offset="1" style="stop-color:#D4D2FA"/>
			</linearGradient>
			<path style="fill:url(#SVGID_00000082362849479537951240000009215558963549702562_);" d="M233.682,131.97
				c0,0-26.224,7.243-26.474,7.992c-0.25,0.749,0,50.949,0,50.949l7.243,30.47c0,0,9.241,3.996,15.485,8.242
				c6.244,4.246,12.987,4.745,18.482,4.246c5.495-0.499,20.729-9.74,20.729-9.74s3.746-8.741,5.994-17.483
				s4.995-47.952,3.996-56.194c-0.999-8.242-2.747-22.977-2.747-22.977s-23.726,2.747-26.724,2.747
				C246.67,130.222,233.682,131.97,233.682,131.97z"/>
			
				<linearGradient id="SVGID_00000097501177260010740600000010174267724423904167_" gradientUnits="userSpaceOnUse" x1="239.9794" y1="112.5042" x2="240.2434" y2="130.0597">
				<stop  offset="0" style="stop-color:#F5F3FE"/>
				<stop  offset="1" style="stop-color:#D4D2FA"/>
			</linearGradient>
			<path style="fill:url(#SVGID_00000097501177260010740600000010174267724423904167_);" d="M222.601,128.871
				c0,0,3.564-1.98,6.864-2.376c3.3-0.396,13.332-1.716,14.652-1.32c1.32,0.396,13.728,3.3,13.728,3.3l-3.3,6.072
				c0,0-11.484-1.848-15.708-1.32c-4.224,0.528-13.332,3.432-13.332,3.432L222.601,128.871z"/>
			
				<linearGradient id="SVGID_00000090975436438039307500000011321503343030827157_" gradientUnits="userSpaceOnUse" x1="236.0076" y1="101.99" x2="242.4406" y2="159.0831">
				<stop  offset="0" style="stop-color:#FFD6CA"/>
				<stop  offset="1" style="stop-color:#F9AA9F"/>
			</linearGradient>
			<path style="fill:url(#SVGID_00000090975436438039307500000011321503343030827157_);" d="M225.637,134.547
				c0,0,10.164-3.432,15.048-3.564c4.884-0.132,12.54-0.792,12.54-0.792s2.508,26.399,2.376,30.095
				c-0.132,3.696-1.716,13.464-2.376,14.124c-0.66,0.66-12.276-16.499-13.86-19.007
				C237.781,152.894,225.637,134.547,225.637,134.547z"/>
			
				<linearGradient id="SVGID_00000131365536975909271410000014645688631969393289_" gradientUnits="userSpaceOnUse" x1="248.5958" y1="140.536" x2="227.7393" y2="171.562">
				<stop  offset="0" style="stop-color:#F5F3FE"/>
				<stop  offset="1" style="stop-color:#D4D2FA"/>
			</linearGradient>
			<path style="fill:url(#SVGID_00000131365536975909271410000014645688631969393289_);" d="M219.697,137.583
				c0,0,11.088,15.18,13.2,18.215c2.112,3.036,8.976,13.2,10.692,16.104c1.716,2.904,6.732,12.012,6.732,12.012
				s-5.28-13.464-7.788-17.951c-2.508-4.488-8.052-14.652-11.22-17.952C228.145,144.711,219.697,137.583,219.697,137.583z"/>
			
				<linearGradient id="SVGID_00000091716295280376061560000009237539462868659087_" gradientUnits="userSpaceOnUse" x1="285.319" y1="111.8235" x2="240.8528" y2="177.9715">
				<stop  offset="0" style="stop-color:#F5F3FE"/>
				<stop  offset="1" style="stop-color:#D4D2FA"/>
			</linearGradient>
			<path style="fill:url(#SVGID_00000091716295280376061560000009237539462868659087_);" d="M259.296,184.309
				c0,0,0.528-25.211,0.396-34.187c-0.132-8.976-1.848-21.647-1.848-21.647l-6.6,0.264c0,0,1.056,22.967,0.924,26.663
				c-0.132,3.696-2.376,14.915-2.376,14.915S255.468,182.329,259.296,184.309z"/>
			
				<linearGradient id="SVGID_00000025406316779324665800000007469324764521893564_" gradientUnits="userSpaceOnUse" x1="262.2912" y1="163.8443" x2="251.1713" y2="180.3863">
				<stop  offset="0" style="stop-color:#F5F3FE"/>
				<stop  offset="1" style="stop-color:#D4D2FA"/>
			</linearGradient>
			<path style="fill:url(#SVGID_00000025406316779324665800000007469324764521893564_);" d="M249.792,170.318
				c0,0,5.676,12.012,9.504,13.992c-0.985-4.706-6.595-15.758-8.484-19.399C250.279,167.884,249.792,170.318,249.792,170.318z"/>
			
				<linearGradient id="SVGID_00000075858154104554249770000001155243985010856114_" gradientUnits="userSpaceOnUse" x1="258.8392" y1="129.9097" x2="229.3316" y2="173.8054">
				<stop  offset="0" style="stop-color:#F5F3FE"/>
				<stop  offset="1" style="stop-color:#D4D2FA"/>
			</linearGradient>
			<path style="fill:url(#SVGID_00000075858154104554249770000001155243985010856114_);" d="M218.377,136.131
				c0,0,3.828-7.26,4.224-7.26c0.396,0,10.692,10.164,15.576,17.292c4.884,7.128,14.916,25.871,16.499,28.511
				c1.584,2.64,4.62,9.636,4.62,9.636l-8.976-0.396c0,0-6.732-14.52-12.408-22.835C232.237,152.762,218.377,136.131,218.377,136.131
				z"/>
			
				<linearGradient id="SVGID_00000025406832226339317820000016480109122387290505_" gradientUnits="userSpaceOnUse" x1="236.1029" y1="189.8156" x2="208.1403" y2="266.8037">
				<stop  offset="0" style="stop-color:#F5F3FE"/>
				<stop  offset="1" style="stop-color:#D4D2FA"/>
			</linearGradient>
			<path style="fill:url(#SVGID_00000025406832226339317820000016480109122387290505_);" d="M253.48,225.63
				c-2.905,1.816-9.805,2.905-11.621,2.542c-1.816-0.363-5.084-3.087-4.721-4.176c0.363-1.089,13.981-20.155,12.71-18.702
				c-1.271,1.453-9.987,10.713-15.071,14.889c-5.084,4.176-7.178,3.728-9.623,4.539c-2.446,0.812-3.813-4.902-5.045-6.267
				c-1.232-1.365-0.221-7.714-1.673-9.167c-1.453-1.452-2.542-2.36-3.087-3.45c-0.545-1.089-0.908-3.632-0.908-5.629
				c0-1.997,0.726-4.903,1.452-6.537c0.726-1.634,10.713-14.163,10.713-14.526c0-0.363-15.434,10.531-15.434,10.531
				s2.361-5.629,3.268-9.442c0.908-3.813,1.452-8.171,1.271-13.618c-0.182-5.447-3.45-11.439-3.45-11.439s-2.398,6.079-5.139,13.577
				c0.033,11.54,0.086,22.156,0.086,22.156l7.243,30.47c0,0,9.241,3.996,15.485,8.242c6.244,4.246,12.987,4.745,18.482,4.246
				c2.19-0.199,5.927-1.788,9.63-3.625c0.549-3.134,1.329-10.62,1.968-12.058C260.743,216.551,256.385,223.814,253.48,225.63z"/>
		</g>
		<g>
			
				<linearGradient id="SVGID_00000090286807698426135390000016374336711332660405_" gradientUnits="userSpaceOnUse" x1="210.6587" y1="229.1448" x2="269.9806" y2="229.1448">
				<stop  offset="0" style="stop-color:#435E8E"/>
				<stop  offset="1" style="stop-color:#183E80"/>
			</linearGradient>
			<path style="fill:url(#SVGID_00000090286807698426135390000016374336711332660405_);" d="M214.452,221.381
				c0,0,14.827,5.912,20.76,7.395c5.932,1.483,11.04,1.648,11.04,1.648s10.711-1.977,14.831-3.955s8.898-4.449,8.898-4.449v9.228
				c0,0-14.83,4.614-21.751,5.438c-6.921,0.824-26.036-0.33-37.57-8.734L214.452,221.381z"/>
			
				<linearGradient id="SVGID_00000030455440818240869680000010571534396578352005_" gradientUnits="userSpaceOnUse" x1="240.3198" y1="215.0089" x2="240.3198" y2="277.7898">
				<stop  offset="0" style="stop-color:#435E8E"/>
				<stop  offset="1" style="stop-color:#183E80"/>
			</linearGradient>
			<path style="fill:url(#SVGID_00000030455440818240869680000010571534396578352005_);" d="M246.746,237.299
				c0,0-1.774,2.669-3.923,10.276c-2.15,7.606,1.819,45.142,1.819,45.142l-9.591-0.827c0,0-6.914-45.361,9.193-61.869
				C244.244,230.02,248.189,232.314,246.746,237.299z"/>
			
				<linearGradient id="SVGID_00000179618629213571292870000015236150978785297086_" gradientUnits="userSpaceOnUse" x1="259.9572" y1="213.2082" x2="259.9572" y2="279.7149">
				<stop  offset="0" style="stop-color:#435E8E"/>
				<stop  offset="1" style="stop-color:#183E80"/>
			</linearGradient>
			<path style="fill:url(#SVGID_00000179618629213571292870000015236150978785297086_);" d="M253.115,229.11
				c0,0,7.401,6.724,9.882,17.472c2.48,10.748,3.803,48.945,3.803,48.945h-6.945c0,0,0-31.748-1.323-44.646
				c-1.323-12.898-5.126-15.378-5.126-15.378L253.115,229.11z"/>
			
				<linearGradient id="SVGID_00000142157894332634801010000003963927408210502548_" gradientUnits="userSpaceOnUse" x1="249.6318" y1="226.596" x2="249.6318" y2="235.2876">
				<stop  offset="0" style="stop-color:#435E8E"/>
				<stop  offset="1" style="stop-color:#183E80"/>
			</linearGradient>
			<path style="fill:url(#SVGID_00000142157894332634801010000003963927408210502548_);" d="M244.244,230.02
				c0,0,3.412,3.753,3.298,5.231c-0.114,1.478-0.796,2.047-0.796,2.047s6.596,0.569,8.188-1.933c0,0,0.682-4.89-1.82-6.255
				C250.613,227.745,244.244,230.02,244.244,230.02z"/>
		</g>
		<g>
			
				<linearGradient id="SVGID_00000078766419408236294890000000189903505935366023_" gradientUnits="userSpaceOnUse" x1="239.4899" y1="128.0844" x2="266.0017" y2="93.3741">
				<stop  offset="0" style="stop-color:#693032"/>
				<stop  offset="1" style="stop-color:#824042"/>
			</linearGradient>
			<path style="fill:url(#SVGID_00000078766419408236294890000000189903505935366023_);" d="M263.458,84.446
				c0.213-0.319,0.958-1.704,1.916-0.958c0.958,0.745,2.023,2.342,2.875,3.833c0.852,1.491,2.662,6.175,1.917,8.731
				c-0.745,2.555-1.597,6.282-1.597,6.282l-2.13,2.129l-3.726-9.157L263.458,84.446z"/>
			
				<linearGradient id="SVGID_00000009570760905820215350000009977294860862104225_" gradientUnits="userSpaceOnUse" x1="237.2299" y1="101.8523" x2="243.6629" y2="158.9453">
				<stop  offset="0" style="stop-color:#FFD6CA"/>
				<stop  offset="1" style="stop-color:#F9AA9F"/>
			</linearGradient>
			<path style="fill:url(#SVGID_00000009570760905820215350000009977294860862104225_);" d="M229.772,133.872
				c0,0,1.396-3.489,1.994-5.981c0.598-2.492,1.595-7.776,1.595-7.776l16.847-1.296l1.096,11.963l-2.193,5.583l-8.972,0.399
				L229.772,133.872z"/>
			
				<linearGradient id="SVGID_00000072266193790894385230000001521372436648038843_" gradientUnits="userSpaceOnUse" x1="248.7613" y1="100.553" x2="255.1942" y2="157.6458">
				<stop  offset="0" style="stop-color:#FFD6CA"/>
				<stop  offset="1" style="stop-color:#F9AA9F"/>
			</linearGradient>
			<path style="fill:url(#SVGID_00000072266193790894385230000001521372436648038843_);" d="M241.435,123.206
				c0,0,3.988,4.984,4.885,5.782c0.897,0.798,10.766,3.888,12.561,4.087s4.386-0.997,4.885-2.393
				c0.499-1.396,0.399-3.09,1.296-3.987c0.897-0.897,1.894-1.196,1.894-1.794c0-0.598-0.299-1.396-0.299-1.396l0.698-0.399v-3.29
				c0,0,2.492-0.897,2.392-1.794c-0.1-0.897-0.498-1.794-1.096-2.891c-0.598-1.096-2.193-2.492-2.094-3.888s0.798-3.888,0.798-4.885
				c0-0.997-0.199-4.785-1.097-6.779c-0.897-1.994-3.888-7.875-3.888-7.875l-14.156-5.383c0,0-8.673,1.794-11.265,5.383
				c-2.592,3.589-2.991,4.785-5.582,11.065c-2.592,6.28,2.592,19.639,2.692,20.037C234.158,123.206,241.435,123.206,241.435,123.206
				z"/>
			
				<linearGradient id="SVGID_00000010284728261527002540000001521211000339112329_" gradientUnits="userSpaceOnUse" x1="239.8475" y1="112.2707" x2="246.0463" y2="112.2707">
				<stop  offset="0" style="stop-color:#693032"/>
				<stop  offset="1" style="stop-color:#824042"/>
			</linearGradient>
			<path style="fill:url(#SVGID_00000010284728261527002540000001521211000339112329_);" d="M246.006,112.972
				c-0.163-0.715-0.579-1.259-0.952-1.75c-0.371-0.5-0.824-1.009-1.378-1.372c-0.28-0.178-0.58-0.335-0.902-0.429
				c-0.329-0.108-0.701-0.123-1.031-0.045c-0.665,0.151-1.217,0.586-1.52,1.134c0.456-0.421,1.022-0.69,1.58-0.727
				c0.55-0.037,1.059,0.23,1.525,0.567c0.342,0.252,0.626,0.569,0.894,0.913c-0.545,0.197-1.112,0.496-1.465,1.117
				c-0.381,0.702-0.264,1.577,0.217,2.182c0.472,0.647,1.484,0.865,2.179,0.425C245.854,114.574,246.176,113.724,246.006,112.972z
				 M244.75,114.296c-0.375,0.219-0.875,0.123-1.141-0.241c-0.279-0.362-0.355-0.907-0.145-1.303
				c0.194-0.386,0.695-0.674,1.223-0.862c0.276,0.406,0.51,0.814,0.584,1.231C245.36,113.578,245.126,114.08,244.75,114.296z"/>
			
				<linearGradient id="SVGID_00000179631107401574861970000005286528729656720039_" gradientUnits="userSpaceOnUse" x1="226.0314" y1="117.8241" x2="252.5432" y2="83.1138">
				<stop  offset="0" style="stop-color:#693032"/>
				<stop  offset="1" style="stop-color:#824042"/>
			</linearGradient>
			<path style="fill:url(#SVGID_00000179631107401574861970000005286528729656720039_);" d="M263.99,84.872
				c0,0,1.278,5.004,1.171,8.624c-0.106,3.62-2.023,6.921-3.407,8.305c-1.384,1.384-4.152,2.555-4.152,2.555l1.491-4.046
				c0,0-4.365,4.365-5.537,4.791c-1.171,0.426-1.917,1.916-1.917,1.916l-1.065-1.384c0,0-1.704,11.286-2.236,10.328
				c-0.532-0.958-3.088-6.495-4.152-8.092c-1.065-1.597-5.537-0.852-5.75,2.449c-0.213,3.301,5.004,7.879,5.004,7.879l-4.152,2.236
				c0,0-1.278,0.852-2.236,1.491c-0.958,0.639-4.259,1.065-4.259,1.065s-2.875-3.62-3.62-4.472
				c-0.745-0.852-1.065,0.107-1.065,0.107s-2.768-5.856-3.407-7.347c-0.639-1.491-1.491-4.472-1.491-4.472l-1.171,2.981
				l-2.236-10.221l-1.171-0.745c0,0,1.491-8.305,15.013-16.929c13.522-8.624,22.466-4.685,24.489-3.194
				C260.157,80.187,263.99,84.872,263.99,84.872z"/>
			
				<linearGradient id="SVGID_00000171715700678633460550000001052972269483775393_" gradientUnits="userSpaceOnUse" x1="265.2314" y1="104.6909" x2="256.1302" y2="122.0901">
				<stop  offset="0" style="stop-color:#693032"/>
				<stop  offset="1" style="stop-color:#824042"/>
			</linearGradient>
			<path style="fill:url(#SVGID_00000171715700678633460550000001052972269483775393_);" d="M263.167,110.659
				c-0.199,1.304-0.799,2.294-1.34,2.212c-0.541-0.083-0.817-1.207-0.618-2.511c0.199-1.304,0.799-2.294,1.34-2.211
				C263.089,108.231,263.366,109.355,263.167,110.659z"/>
			
				<linearGradient id="SVGID_00000178918020237283448470000002658356606885357220_" gradientUnits="userSpaceOnUse" x1="263.6603" y1="103.8692" x2="254.5592" y2="121.2684">
				<stop  offset="0" style="stop-color:#693032"/>
				<stop  offset="1" style="stop-color:#824042"/>
			</linearGradient>
			<path style="fill:url(#SVGID_00000178918020237283448470000002658356606885357220_);" d="M263.925,106.034
				c-0.473-0.261-0.99-0.456-1.519-0.568c-0.517-0.109-1.054-0.153-1.581-0.109c-0.287,0.024-0.552,0.097-0.82,0.199
				c-0.267,0.101-0.449,0.185-0.615,0.42c-0.066,0.093,0.002,0.232,0.105,0.258c0.103,0.027,0.201,0.06,0.308,0.054
				c0.111-0.007,0.223-0.036,0.334-0.047c0.229-0.022,0.46-0.021,0.689-0.039c0.466-0.036,0.936-0.007,1.393,0.095
				c0.446,0.1,0.873,0.257,1.272,0.48c0.198,0.111,0.391,0.234,0.569,0.374c0.202,0.158,0.402,0.342,0.671,0.348
				c0.172,0.004,0.341-0.155,0.331-0.331C265.032,106.636,264.342,106.264,263.925,106.034z"/>
			
				<linearGradient id="SVGID_00000060731938190099004250000004656263173368510130_" gradientUnits="userSpaceOnUse" x1="264.7636" y1="122.6251" x2="263.9447" y2="124.1907">
				<stop  offset="0" style="stop-color:#FFD6CA"/>
				<stop  offset="1" style="stop-color:#F9AA9F"/>
			</linearGradient>
			<path style="fill:url(#SVGID_00000060731938190099004250000004656263173368510130_);" d="M266.095,123.324
				c-0.283-0.101-0.586-0.026-0.882-0.008c-0.301,0.019-0.599,0.055-0.901,0.059c-0.578,0.008-1.139-0.121-1.709-0.191
				c-0.095-0.012-0.133,0.12-0.075,0.18c0.449,0.463,1.109,0.546,1.724,0.567c0.325,0.011,0.655,0.004,0.977-0.042
				c0.308-0.044,0.651-0.057,0.907-0.243C266.261,123.555,266.244,123.377,266.095,123.324z"/>
			
				<linearGradient id="SVGID_00000125600415726181357480000001606609612959620224_" gradientUnits="userSpaceOnUse" x1="250.7018" y1="137.4566" x2="242.6411" y2="116.657">
				<stop  offset="0" style="stop-color:#FFD6CA"/>
				<stop  offset="1" style="stop-color:#F9AA9F"/>
			</linearGradient>
			<path style="fill:url(#SVGID_00000125600415726181357480000001606609612959620224_);" d="M251.344,130.956
				c-2.449-0.806-4.625-1.613-5.024-1.968c-0.59-0.525-2.516-2.859-3.765-4.396c0.671,1.653,2.027,4.746,3.179,5.826
				c1.098,1.029,3.983,1.87,5.688,2.297C251.393,132.064,251.367,131.47,251.344,130.956z"/>
		</g>
		<g>
			
				<linearGradient id="SVGID_00000064323065731055833820000017662834340208668606_" gradientUnits="userSpaceOnUse" x1="301.2286" y1="121.1516" x2="311.472" y2="265.972">
				<stop  offset="0" style="stop-color:#F5F3FE"/>
				<stop  offset="1" style="stop-color:#D4D2FA"/>
			</linearGradient>
			<path style="fill:url(#SVGID_00000064323065731055833820000017662834340208668606_);" d="M276.39,127.475
				c0,0,27.135-6.338,28.444-6.576s22.603,8.089,22.603,8.089s-3.093,5.591-7.138,8.922c-4.045,3.331-14.513,9.279-18.082,11.182
				c-3.569,1.903-23.435,11.301-23.435,11.301S275.664,129.411,276.39,127.475z"/>
			
				<linearGradient id="SVGID_00000003063662539713918360000014621187381314744756_" gradientUnits="userSpaceOnUse" x1="321.8348" y1="142.4768" x2="308.6815" y2="108.5367">
				<stop  offset="0" style="stop-color:#F5F3FE"/>
				<stop  offset="1" style="stop-color:#D4D2FA"/>
			</linearGradient>
			<path style="fill:url(#SVGID_00000003063662539713918360000014621187381314744756_);" d="M326.581,130.409
				c-3.636-0.967-10.379-2.787-11.992-3.325c-2.141-0.714-9.755-4.164-9.755-4.164s1.427,4.164,8.446,8.565
				c3.462,2.171,7.326,2.863,10.356,3.01C324.892,132.97,325.915,131.461,326.581,130.409z"/>
			
				<linearGradient id="SVGID_00000119094268707009560910000017024321021298795149_" gradientUnits="userSpaceOnUse" x1="316.0853" y1="120.1111" x2="326.3287" y2="264.9314">
				<stop  offset="0" style="stop-color:#F5F3FE"/>
				<stop  offset="1" style="stop-color:#D4D2FA"/>
			</linearGradient>
			<path style="fill:url(#SVGID_00000119094268707009560910000017024321021298795149_);" d="M303.406,121.493
				c0,0,2.855-7.495,4.996-8.803c2.141-1.309,17.012,1.665,18.558,3.807c1.547,2.141,2.379,7.97,2.26,9.517
				c-0.119,1.547-0.952,4.877-2.617,5.948c-1.665,1.071-9.041,0.357-12.729-1.071C310.187,129.463,304.953,124.467,303.406,121.493z
				"/>
			<g>
				
					<linearGradient id="SVGID_00000106107554942152101230000002741737443823283366_" gradientUnits="userSpaceOnUse" x1="305.9684" y1="87.6347" x2="308.5586" y2="126.017">
					<stop  offset="0" style="stop-color:#FFD6CA"/>
					<stop  offset="1" style="stop-color:#F9AA9F"/>
				</linearGradient>
				<path style="fill:url(#SVGID_00000106107554942152101230000002741737443823283366_);" d="M308.601,115.098
					c0,0-0.38-2.434-1.065-3.728c-0.685-1.293-1.826-3.804-3.576-6.086c-1.75-2.282-3.271-3.271-3.271-3.271
					s-2.891,1.141-5.782,0.076c0,0-4.184,0.685-4.945,0.533c-0.761-0.152-2.358-1.826-2.358-1.826s0.685-1.521,1.293-1.978
					c0.609-0.456,4.869-3.423,4.945-4.26c0.076-0.837,5.477-6.314,5.477-6.314l1.217-3.88c0,0,6.923,9.357,7.836,10.803
					c0.913,1.445,17.878,18.182,18.714,22.366c0.837,4.184-0.228,5.097-0.609,5.401c-0.38,0.304-12.096-1.826-13.541-2.663
					C311.492,119.434,309.21,117.38,308.601,115.098z"/>
				
					<linearGradient id="SVGID_00000125569738581020170020000017776816007073623986_" gradientUnits="userSpaceOnUse" x1="294.5736" y1="91.3524" x2="301.0343" y2="103.9989">
					<stop  offset="0" style="stop-color:#FFD6CA"/>
					<stop  offset="1" style="stop-color:#F9AA9F"/>
				</linearGradient>
				<path style="fill:url(#SVGID_00000125569738581020170020000017776816007073623986_);" d="M305.133,91.789
					c-0.145-0.463-0.667-1.68-1.113-2.694c-1.809-2.47-3.482-4.732-3.482-4.732l-1.217,3.88c0,0-5.401,5.477-5.477,6.314
					c-0.036,0.397-1.014,1.272-2.096,2.132l0.864,1.945c0,0,0.281-0.014,0.675-0.092c-1.259,0.841-4.122,2.97-4.122,2.97
					s1.451,0.174,2.729-0.058c1.277-0.232,2.206-1.51,2.206-1.742c0-0.187-0.039-1.004-0.144-1.35
					c0.348-0.118,0.715-0.281,1.044-0.524c1.008-0.743,4.563-1.061,5.412-1.008c0.849,0.053,3.183-0.637,4.404-1.432
					C306.034,94.601,305.398,92.638,305.133,91.789z"/>
				
					<linearGradient id="SVGID_00000005958844256679400940000013115404660527754933_" gradientUnits="userSpaceOnUse" x1="289.8195" y1="88.7244" x2="292.4098" y2="127.1068">
					<stop  offset="0" style="stop-color:#FFD6CA"/>
					<stop  offset="1" style="stop-color:#F9AA9F"/>
				</linearGradient>
				<path style="fill:url(#SVGID_00000005958844256679400940000013115404660527754933_);" d="M289.811,99.122
					c0,0-1.293-1.141-1.674-1.902c-0.38-0.761-2.282-5.782-1.521-7.075c0.761-1.293,2.587-2.282,2.891-2.054
					c0.304,0.228,1.978,5.706,2.358,6.543c0.38,0.837,2.358,3.043,2.13,3.804C293.767,99.198,291.789,100.567,289.811,99.122z"/>
				
					<linearGradient id="SVGID_00000142152855535475286880000017179820443636019623_" gradientUnits="userSpaceOnUse" x1="289.0368" y1="93.5279" x2="294.5299" y2="104.2802">
					<stop  offset="0" style="stop-color:#FFD6CA"/>
					<stop  offset="1" style="stop-color:#F9AA9F"/>
				</linearGradient>
				<path style="fill:url(#SVGID_00000142152855535475286880000017179820443636019623_);" d="M292.133,95.092
					c-0.009-0.006-0.032-0.02-0.032-0.02s-0.084,0.109-0.211,0.262c-0.255-1.096-0.624-2.603-0.779-3.1
					c-0.248-0.795-1.341-2.434-1.341-2.434s0.944,5.216,1.043,6.11c0.019,0.174,0.046,0.317,0.075,0.445
					c-0.125,0.097-0.247,0.181-0.355,0.224c-0.502,0.201-1.95,0.482-2.427,0.572c0.01,0.021,0.023,0.05,0.031,0.067
					c0.38,0.761,1.674,1.902,1.674,1.902c1.978,1.445,3.956,0.076,4.184-0.685C294.189,97.789,292.789,96.098,292.133,95.092z"/>
				
					<linearGradient id="SVGID_00000113338259625180498180000011684431119209828482_" gradientUnits="userSpaceOnUse" x1="300.6088" y1="87.9964" x2="303.199" y2="126.3787">
					<stop  offset="0" style="stop-color:#FFD6CA"/>
					<stop  offset="1" style="stop-color:#F9AA9F"/>
				</linearGradient>
				<path style="fill:url(#SVGID_00000113338259625180498180000011684431119209828482_);" d="M296.727,84.673
					c0,0,0.727-1.382,1.745-1.527c1.018-0.146,1.818-0.146,2.036,0.582c0.218,0.727,2.254,6.327,2.691,6.836
					c0.436,0.509,1.6,1.455,1.309,1.891c-0.291,0.436-2.327,1.745-3.273,1.382c-0.945-0.364-2.691-2.618-2.691-2.618L296.727,84.673
					z"/>
				
					<linearGradient id="SVGID_00000137113501680039804610000010412035896970995363_" gradientUnits="userSpaceOnUse" x1="297.2447" y1="88.2234" x2="299.8348" y2="126.6057">
					<stop  offset="0" style="stop-color:#FFD6CA"/>
					<stop  offset="1" style="stop-color:#F9AA9F"/>
				</linearGradient>
				<path style="fill:url(#SVGID_00000137113501680039804610000010412035896970995363_);" d="M293.164,86.418
					c0,0,0.218-0.873,1.527-1.455c1.309-0.582,2.036-0.291,2.036-0.291s2.764,6.691,3.127,7.273c0.364,0.582,1.891,1.745,1.746,2.4
					c-0.146,0.655-2.764,1.818-3.855,1.455c-1.091-0.364-2.473-2.909-2.473-2.909L293.164,86.418z"/>
				
					<linearGradient id="SVGID_00000109721177741255781900000008660986535503937471_" gradientUnits="userSpaceOnUse" x1="295.9522" y1="88.4957" x2="300.9395" y2="98.2579">
					<stop  offset="0" style="stop-color:#FFD6CA"/>
					<stop  offset="1" style="stop-color:#F9AA9F"/>
				</linearGradient>
				<path style="fill:url(#SVGID_00000109721177741255781900000008660986535503937471_);" d="M297.745,87.117
					c0.137,0.591,0.329,1.355,0.555,2.048c0.449,1.38,1.316,3.435,1.316,3.435s-0.385,0.738-1.027,0.835
					c-0.642,0.096-2.6,0.578-2.6,0.578s0.005,0.021,0.014,0.057c0.494,0.719,1.159,1.536,1.742,1.731
					c1.091,0.364,3.709-0.8,3.855-1.455c0.145-0.655-1.382-1.818-1.745-2.4C299.638,91.599,298.573,89.093,297.745,87.117z"/>
				
					<linearGradient id="SVGID_00000121258489455734762560000016117535770439156107_" gradientUnits="userSpaceOnUse" x1="293.3639" y1="88.4853" x2="295.9541" y2="126.8674">
					<stop  offset="0" style="stop-color:#FFD6CA"/>
					<stop  offset="1" style="stop-color:#F9AA9F"/>
				</linearGradient>
				<path style="fill:url(#SVGID_00000121258489455734762560000016117535770439156107_);" d="M289.278,88.319
					c0,0,0.152-0.456,1.065-1.902c0.913-1.445,2.815-0.38,3.043-0.076s2.587,7.075,2.587,7.075l1.978,2.663
					c0,0-2.51,1.674-3.271,1.75c-0.761,0.076-3.119-2.13-3.119-2.13L289.278,88.319z"/>
				
					<linearGradient id="SVGID_00000016059328215763454170000003697653645018876328_" gradientUnits="userSpaceOnUse" x1="292.3201" y1="90.3512" x2="297.3073" y2="100.1135">
					<stop  offset="0" style="stop-color:#FFD6CA"/>
					<stop  offset="1" style="stop-color:#F9AA9F"/>
				</linearGradient>
				<path style="fill:url(#SVGID_00000016059328215763454170000003697653645018876328_);" d="M297.951,96.079l-1.978-2.663
					c0,0-1.491-4.281-2.216-6.185c0.181,0.8,1.305,5.779,1.36,6.334c0.06,0.603-0.302,1.327-0.905,1.689
					c-0.603,0.362-2.111,0.422-2.111,0.422s0.099,0.323,0.296,0.757c0.756,0.634,1.817,1.442,2.283,1.395
					C295.44,97.752,297.951,96.079,297.951,96.079z"/>
				
					<linearGradient id="SVGID_00000069367324071368446180000008675128631518760844_" gradientUnits="userSpaceOnUse" x1="289.7235" y1="88.7309" x2="292.3138" y2="127.1134">
					<stop  offset="0" style="stop-color:#FFD6CA"/>
					<stop  offset="1" style="stop-color:#F9AA9F"/>
				</linearGradient>
				<path style="fill:url(#SVGID_00000069367324071368446180000008675128631518760844_);" d="M287.605,100.796
					c0,0,0-1.293,0.533-2.054c0.533-0.761,4.032-2.587,4.412-2.358c0.38,0.228,1.293,2.587,0.38,3.499
					C292.017,100.796,290.039,102.773,287.605,100.796z"/>
			</g>
		</g>
		<g>
			
				<linearGradient id="SVGID_00000012443526710119292400000010344213388228803727_" gradientUnits="userSpaceOnUse" x1="187.9005" y1="129.1779" x2="198.1439" y2="273.9978">
				<stop  offset="0" style="stop-color:#F5F3FE"/>
				<stop  offset="1" style="stop-color:#D4D2FA"/>
			</linearGradient>
			<path style="fill:url(#SVGID_00000012443526710119292400000010344213388228803727_);" d="M211.91,178.16
				c-3.01,7.77-16.79,15.54-17.29,16.55c-0.5,1,1,6.76,1,6.76s-0.05,0.22-0.17,0.58c-0.57,1.84-2.69,7.52-7.1,7.94
				c-5.26,0.5-17.04,2.51-17.54,0.76c0,0,0-0.01,0-0.02c-0.23-0.83-0.55-4.8-0.66-9.37c-0.01-0.43-0.02-0.88-0.03-1.32
				c-0.07-5.36,0.17-11.17,1.19-13.6c2-4.77,35.9-46.48,35.9-46.48C213.28,147.37,214.92,170.4,211.91,178.16z"/>
			
				<linearGradient id="SVGID_00000078020600739633653250000008384409671584289462_" gradientUnits="userSpaceOnUse" x1="185.8748" y1="222.2586" x2="184.2798" y2="213.0435">
				<stop  offset="0" style="stop-color:#F5F3FE"/>
				<stop  offset="1" style="stop-color:#D4D2FA"/>
			</linearGradient>
			<path style="fill:url(#SVGID_00000078020600739633653250000008384409671584289462_);" d="M195.45,202.05
				c-0.57,1.84-2.69,7.52-7.1,7.94c-0.98,0.09-2.18,0.24-3.5,0.4c-5.75,0.72-13.63,1.78-14.04,0.36c0,0,0-0.01,0-0.02
				c0-0.22,0.18-2.56,7.41-5.7c0.88-0.38,1.87-0.78,2.97-1.18C188.39,201.22,193.07,201.42,195.45,202.05z"/>
			
				<linearGradient id="SVGID_00000119821636511562383410000002964385716157996986_" gradientUnits="userSpaceOnUse" x1="192.1544" y1="181.3809" x2="174.977" y2="206.934">
				<stop  offset="0" style="stop-color:#F5F3FE"/>
				<stop  offset="1" style="stop-color:#D4D2FA"/>
			</linearGradient>
			<path style="fill:url(#SVGID_00000119821636511562383410000002964385716157996986_);" d="M192.41,195.12c0,0-10.22,0-14.06,1.7
				c-2.59,1.15-6.17,3.29-8.2,4.54c-0.01-0.43-0.02-0.88-0.03-1.32c3.46-1.67,9.63-4.61,11.64-5.21
				C184.6,193.98,192.41,195.12,192.41,195.12z"/>
			<g>
				
					<linearGradient id="SVGID_00000072244114114815344800000003251935657874352522_" gradientUnits="userSpaceOnUse" x1="222.7786" y1="221.622" x2="181.4432" y2="203.8391">
					<stop  offset="0" style="stop-color:#FFD6CA"/>
					<stop  offset="1" style="stop-color:#F9AA9F"/>
				</linearGradient>
				<path style="fill:url(#SVGID_00000072244114114815344800000003251935657874352522_);" d="M223.88,226.29
					c-0.06,0.02-0.12,0.04-0.18,0.05c-0.83,0.2-4.43,1-6.9,0.24c-0.45-0.14-1.15-0.39-2.05-0.74h-0.01
					c-4.71-1.81-14.69-6.08-20.63-9.25c-2.93-1.56-6.31-3.94-9.26-6.2c-2.89-2.2-5.37-4.29-6.63-5.36c0.88-0.38,1.87-0.78,2.97-1.18
					c7.2-2.63,11.88-2.43,14.26-1.8c0,0,4.48,4.26,6.32,6.3c1.85,2.03,8.44,5.82,8.44,5.82s2.79,1.24,5.73,2.54
					c0.94,0.4,1.89,0.82,2.77,1.2c0.09,0.04,0.18,0.08,0.27,0.12c1.79,0.77,3.22,1.38,3.54,1.47c0.2,0.06,0.38,0.4,0.54,0.9
					c0,0-0.01,0,0,0.01C223.64,222.26,223.88,226.29,223.88,226.29z"/>
				
					<linearGradient id="SVGID_00000078031099914585990990000002978417422315353498_" gradientUnits="userSpaceOnUse" x1="213.2959" y1="217.858" x2="220.1606" y2="217.858">
					<stop  offset="0" style="stop-color:#FFD6CA"/>
					<stop  offset="1" style="stop-color:#F9AA9F"/>
				</linearGradient>
				<path style="fill:url(#SVGID_00000078031099914585990990000002978417422315353498_);" d="M213.296,218.356
					c0,0,1.031-0.011,1.54-0.011s1.345,0.473,1.709,0.764c0.364,0.291,0.618,1.018,1.345,0.691c0.727-0.327,2.036-0.945,2.218-1.346
					c0.182-0.4-0.146-1.091-0.546-1.309c-0.4-0.218-2.618-1.382-2.945-1.309c-0.327,0.073-2.618,0.945-2.8,1.164
					C213.636,217.218,213.296,218.356,213.296,218.356z"/>
				
					<linearGradient id="SVGID_00000060021427726458081320000009630340655296554664_" gradientUnits="userSpaceOnUse" x1="224.0654" y1="218.6309" x2="182.7298" y2="200.8478">
					<stop  offset="0" style="stop-color:#FFD6CA"/>
					<stop  offset="1" style="stop-color:#F9AA9F"/>
				</linearGradient>
				<path style="fill:url(#SVGID_00000060021427726458081320000009630340655296554664_);" d="M208.332,214.241
					c0,0,3.919-2.156,5.421-2.351c1.502-0.196,7.316,0.392,7.773,0.914c0.457,0.523,0.915,1.241,0.261,1.96
					c-0.653,0.719-4.18,1.11-4.376,1.176c-0.196,0.065-4.115,2.417-4.115,2.417s-2.351-0.392-3.07-0.98
					C209.507,216.788,208.332,214.241,208.332,214.241z"/>
				
					<linearGradient id="SVGID_00000116236966784648063720000011051837740200387995_" gradientUnits="userSpaceOnUse" x1="227.9888" y1="222.1921" x2="163.2932" y2="194.3593">
					<stop  offset="0" style="stop-color:#FFD6CA"/>
					<stop  offset="1" style="stop-color:#F9AA9F"/>
				</linearGradient>
				<path style="fill:url(#SVGID_00000116236966784648063720000011051837740200387995_);" d="M228.76,221.56
					c-0.42,1.03-0.87,1.98-1.16,2.35c-0.59,0.98-3.72,2.38-3.72,2.38c-0.06,0.02-0.12,0.04-0.18,0.05c-1.19,0.2-2.33-1.6-3.02-2.97
					c-0.12-0.24-0.22-0.46-0.31-0.66c-1.57-0.14-4.01-0.67-4.4-0.96c-0.52-0.39-1.82-2.48-1.82-2.48s3.07,0.07,3.59-0.2
					c0.32-0.16,0.87-0.67,1.24-1.04c0.19-0.19,0.34-0.33,0.38-0.38c-0.04,0.01-0.3,0.12-0.65,0.26c-0.65,0.27-1.59,0.64-1.76,0.64
					c-0.26,0-1.5-1.17-1.5-1.17s0.16-0.29,0.49-0.67c0.42-0.5,1.12-1.18,2.12-1.62c1.77-0.78,4.77-1.24,5.23-1.11
					c0.45,0.13,1.63,1.18,2.05,1.78c0.76,0.12,1.91,0.37,2.31,0.8c0.46-0.05,1.07-0.07,1.32,0.36c0.03,0.04,0.05,0.11,0.06,0.19
					c0.36,0.19,0.78,0.5,0.86,0.85C229.97,218.31,229.39,220.04,228.76,221.56z"/>
				
					<linearGradient id="SVGID_00000029754085175391390980000016694175509334044825_" gradientUnits="userSpaceOnUse" x1="227.3195" y1="224.0059" x2="176.8328" y2="202.286">
					<stop  offset="0" style="stop-color:#FFD6CA"/>
					<stop  offset="1" style="stop-color:#F9AA9F"/>
				</linearGradient>
				<path style="fill:url(#SVGID_00000029754085175391390980000016694175509334044825_);" d="M228.78,218.66
					c-0.06,0.4-0.5,1.57-0.62,1.96c-0.1,0.36,0.28,0.87,0.6,0.94c-0.42,1.03-0.87,1.98-1.16,2.35c-0.59,0.98-3.72,2.38-3.72,2.38
					c-0.06,0.02-0.12,0.04-0.18,0.05c-0.83,0.2-4.43,1-6.9,0.24c-0.45-0.14-1.15-0.39-2.05-0.74c0.51-0.11,1.01-0.19,1.23-0.19
					c0.5,0,1.9-0.45,2.96-0.95c0.49-0.23,1.12-0.74,1.74-1.33c0.74-0.7,1.47-1.53,1.9-2.13c0.14-0.21,0.31-0.5,0.48-0.83
					c-0.01-0.01,0-0.01,0-0.01c0.74-1.48,1.58-3.8,1.58-3.8s0.17,1.11,0.06,1.56s-0.5,1.9-0.84,2.74c-0.33,0.84-0.11,1.12,0.34,1.34
					c0.44,0.22,0.95-0.33,1.28-0.78c0.34-0.45,1.73-3.63,1.9-3.97c0.17-0.33-0.05,0.67-0.17,1.06c-0.11,0.39-0.83,2.29-1.17,3.02
					c-0.33,0.73,0.06,0.78,0.45,0.84c0.39,0.05,0.89-0.84,1.06-1.06c0.17-0.23,1.34-3.91,1.34-3.91S228.84,218.27,228.78,218.66z"/>
				
					<linearGradient id="SVGID_00000046310748788751928750000014566442351170216579_" gradientUnits="userSpaceOnUse" x1="221.1396" y1="216.7487" x2="216.4831" y2="214.7454">
					<stop  offset="0" style="stop-color:#FFD6CA"/>
					<stop  offset="1" style="stop-color:#F9AA9F"/>
				</linearGradient>
				<path style="fill:url(#SVGID_00000046310748788751928750000014566442351170216579_);" d="M219.847,217.227l1.682-1.346
					C221.529,215.882,221.305,217.003,219.847,217.227z"/>
				
					<linearGradient id="SVGID_00000027573052903330000870000015158349871567577475_" gradientUnits="userSpaceOnUse" x1="216.5062" y1="214.7388" x2="212.1447" y2="212.8624">
					<stop  offset="0" style="stop-color:#FFD6CA"/>
					<stop  offset="1" style="stop-color:#F9AA9F"/>
				</linearGradient>
				<path style="fill:url(#SVGID_00000027573052903330000870000015158349871567577475_);" d="M216.314,215.265l-0.449-1.402
					C215.865,213.863,216.426,213.919,216.314,215.265z"/>
			</g>
		</g>
		
			<linearGradient id="SVGID_00000121255236881892010150000013915320156875960214_" gradientUnits="userSpaceOnUse" x1="294.9336" y1="134.3202" x2="257.5291" y2="177.172">
			<stop  offset="0" style="stop-color:#F5F3FE"/>
			<stop  offset="1" style="stop-color:#D4D2FA"/>
		</linearGradient>
		<path style="fill:url(#SVGID_00000121255236881892010150000013915320156875960214_);" d="M279.264,157.357
			c0,0,0.182-5.447-0.545-11.076c-0.726-5.629-1.997-13.437-1.997-13.437l4.176,13.437l9.26-8.171c0,0-9.26,11.802-8.534,13.074
			c0.726,1.271,6.9-0.545,6.9-0.545l20.7-10.35c0,0-15.797,10.531-17.976,11.802C289.069,153.363,279.264,157.357,279.264,157.357z"
			/>
	</g>
</g>
</svg>
